<?xml version="1.0" encoding="UTF-8"?>
<!DOCTYPE svg PUBLIC "-//W3C//DTD SVG 1.1//EN" "http://www.w3.org/Graphics/SVG/1.1/DTD/svg11.dtd">
<!-- Creator: CorelDRAW 2018 -->
<svg xmlns="http://www.w3.org/2000/svg" xml:space="preserve" width="192.907mm" height="192.907mm" version="1.1" style="shape-rendering:geometricPrecision; text-rendering:geometricPrecision; image-rendering:optimizeQuality; fill-rule:evenodd; clip-rule:evenodd"
viewBox="0 0 238.28 238.28"
 xmlns:xlink="http://www.w3.org/1999/xlink">
 <defs>
  <style type="text/css">
   <![CDATA[
    .str0 {stroke:#2B2A29;stroke-width:0.25;stroke-miterlimit:22.9256}
    .fil1 {fill:#FEFEFE}
    .fil0 {fill:#5D321C}
    .fil2 {fill:#FEFEFE;fill-rule:nonzero}
   ]]>
  </style>
 </defs>
 <g id="Слой_x0020_1">
  <metadata id="CorelCorpID_0Corel-Layer"/>
  <g id="_903989120">
   <path class="fil0 str0" d="M119.14 0.12c65.73,0 119.02,53.29 119.02,119.02 0,65.73 -53.29,119.02 -119.02,119.02 -65.73,0 -119.02,-53.29 -119.02,-119.02 0,-65.73 53.29,-119.02 119.02,-119.02z"/>
   <g>
    <path class="fil1" d="M97.87 206.1c0,2.62 0.19,2.44 2.44,4.12 -2.81,-0.56 -4.68,0.94 -6,2.62 0.19,-1.31 0,-2.81 -1.69,-2.62 0.56,1.31 -0.94,2.62 0.19,3.94l-0.56 0.37c-0.56,0.37 -0.37,-0.19 -0.37,0.75 2.25,0 2.81,2.25 2.81,4.31 0.37,9.18 -15.93,7.68 -24.55,1.31 -0.75,-0.56 -1.31,-0.94 -1.87,-1.69 -1.31,-0.94 -2.62,-2.44 -3.37,-3.94 -0.56,-0.75 -1.5,-1.12 -2.44,-1.31 1.12,7.68 12.93,14.43 20.99,14.43 3.56,0 6,-0.37 8.81,-2.06 1.69,-1.12 3.56,-3 3.56,-5.81 0.75,0.56 1.31,1.5 2.06,2.44l1.12 -0.19c-0.56,-0.75 -1.5,-1.31 -2.81,-3.37 -6,-8.62 6.18,-11.62 8.43,-4.68l1.12 0c-0.75,-1.87 -1.12,-1.87 -2.25,-3.19 -1.69,-2.25 1.12,-3.56 -0.94,-3.56 -0.56,0 -0.75,0.19 -1.12,0.37 -0.19,-0.75 -0.75,-1.31 -1.5,-1.87 -0.56,-0.19 -0.75,-0.19 -1.12,-0.56 -0.19,-0.37 -0.19,-0.37 -0.37,-0.56 0,0 -0.19,-0.19 -0.19,-0.19 0,-0.19 -0.19,-0.37 -0.19,-0.37 0,0.75 -0.19,0.75 -0.19,1.31z"/>
    <path class="fil1" d="M25.72 176.12c3.37,0 2.81,-0.19 5.43,-1.87 -0.37,2.81 -0.94,3.19 0.56,3.94 0,-4.5 0.75,-9.74 5.06,-9.74 3.37,0 5.43,3.19 5.06,6.18 -0.19,1.5 -0.94,1.87 0.37,2.62 0.19,-0.56 0.37,-1.12 0.56,-1.69 0.19,-1.5 0,-2.81 0.75,-3.75 0.75,-0.75 0.94,-0.19 1.69,-0.75 -0.37,-0.75 -0.19,-0.56 -1.12,-1.31l-0.37 -0.19c0.56,-3.19 -0.94,-2.62 0.19,-4.68 -3.37,0.94 -2.44,4.68 -2.44,5.25 -1.12,-1.87 -3.19,-2.62 -5.81,-2.25 0.56,-0.75 1.87,-2.06 0.37,-3 -0.19,0.75 -0.75,0.94 -1.5,1.31 -0.94,0.56 -0.94,0.75 -1.31,1.69 -0.37,-0.19 -0.37,-0.37 -0.75,-0.37 -1.12,0 0.19,0.75 0.19,2.06 0,0.75 -0.75,2.06 -1.12,2.62 -6.37,9.18 -20.61,-7.12 -19.11,-21.92 0.19,-2.06 0.75,-1.31 0.19,-3 -0.19,-0.19 -0.19,-0.56 -0.37,-0.56 0,-0.19 0,-0.37 0,-0.37l-0.19 -0.19c-3.56,5.25 -1.87,13.87 0.56,19.11 2.44,4.68 7.68,10.87 13.12,10.87z"/>
    <path class="fil1" d="M63.95 31.08l-3.19 -0.37c-0.19,0.37 -0.37,0.56 -0.56,0.94 2.44,0 4.68,0.19 6.37,0.94 2.06,0.94 3.19,1.87 3.19,4.31 0,2.44 -1.5,3.75 -3,4.5 -3.56,1.69 -4.68,-0.94 -5.62,0.75 2.06,1.31 5.81,-0.19 6,3 0.37,0 0.75,-0.19 1.12,-0.37 0.37,-0.56 0,0 0.19,-0.56l0.19 -0.56c2.25,0.94 3,-0.94 4.87,0.37 -0.19,-0.94 -0.94,-1.69 -1.69,-2.25 -1.5,-0.94 -1.69,-0.37 -3.37,-0.37 1.5,-2.25 2.06,-1.12 2.06,-5.81 0.94,0.75 1.69,1.87 3,0.56 -1.5,-0.94 -0.75,-2.44 -3,-2.81 0.19,-0.56 0.75,-0.94 0.19,-1.12 -0.37,-0.19 -0.75,0.19 -1.31,0.37 -1.31,0.56 -5.62,-1.69 -5.81,-5.06 -0.37,-6.56 9.74,-13.12 15.55,-14.43 2.44,-0.56 3.75,-0.75 6.75,-0.75 1.5,0 2.25,0 3.37,0.37 1.31,0.37 1.69,-0.19 3,-0.56 -1.87,-1.87 -7.5,-2.62 -11.06,-1.87 -4.12,0.56 -7.5,1.87 -10.31,3.56 -3.75,2.44 -8.62,6.93 -8.62,11.99 0,3.19 0.56,3.19 1.69,5.25z"/>
    <path class="fil1" d="M142.28 17.96c-0.56,-1.12 -1.31,-1.87 -1.87,-2.62l-1.12 0.19c0.94,1.31 6.75,6.18 3.56,10.31 -1.12,1.31 -3.56,2.06 -5.81,1.31 -3.56,-1.31 -2.25,-3.56 -4.5,-3.56 1.31,3.94 3.56,2.25 2.25,6.56 0.94,0.37 1.31,0.37 2.06,-0.19 0.37,1.69 2.06,1.87 2.62,2.62 0.56,0.37 0.37,0.56 0.75,1.12 0.37,-3.56 0.37,-3.56 -2.06,-5.43 5.25,-0.56 3,-0.94 5.62,-2.44 0,1.31 0.19,2.06 1.31,2.25 0.56,0 0.19,0 0.75,-2.06 0.19,-1.12 0,-1.12 -0.37,-2.06 0.94,0 0.94,0 0.94,-0.94 -1.31,0 -1.69,-0.37 -2.25,-1.31 -1.12,-2.62 -0.94,-6 1.87,-7.87 2.81,-1.87 8.25,-1.87 12.37,-0.94 3.56,0.94 7.12,2.62 9.74,4.68 2.62,1.87 3.75,3 5.43,5.43 0.37,0.75 1.5,1.12 2.25,1.5 -0.19,-3 -3.37,-6.56 -5.62,-8.43 -6.37,-5.62 -19.11,-8.99 -25.67,-3 -1.87,1.87 -1.69,3.19 -2.06,4.68l-0.19 0.19z"/>
    <path class="fil1" d="M9.98 83.18c0,4.5 0.75,8.81 4.5,11.62 1.5,0.94 2.25,0.56 3.37,1.12 -1.5,1.5 -2.81,1.31 -2.25,3 0.75,-0.37 0.37,-0.37 0.94,-0.94 9.18,-8.99 14.8,2.44 7.87,6.37 -0.75,0.37 -0.75,0.19 -0.75,1.31 2.44,-0.37 2.44,-2.62 5.25,-2.62 0.37,0 0.94,0.37 1.31,0.56 0.19,-0.94 0.37,-0.94 -0.19,-2.06 2.44,-1.5 1.69,-1.87 2.44,-2.81l0.75 -0.37c0,0 0.19,0 0.19,0l0.37 -0.19c-3,-0.37 -3.75,-0.75 -5.62,2.25 0,-1.69 0.19,-3.19 -1.31,-4.87 -0.37,-0.56 -0.75,-0.56 -1.12,-1.12 1.5,0 2.44,-0.19 2.44,-1.69 -0.75,0.19 -1.31,0 -2.06,-0.19 -1.12,-0.19 -1.31,0 -2.25,0.19 0,-0.94 0.19,-0.75 -0.75,-0.94 0,1.31 -0.37,1.87 -1.31,2.25 -5.25,2.25 -8.99,-0.56 -9.37,-6.37 -0.56,-7.31 1.87,-13.3 6,-18.74 2.44,-3.19 4.5,-3.75 5.06,-4.31 0.37,-0.37 0.94,-1.69 0.94,-2.25 -1.5,0.75 -3,0.56 -5.81,3 -3.37,3 -5.43,6.18 -7.12,10.49 -0.56,1.69 -1.5,5.06 -1.5,7.31z"/>
    <path class="fil1" d="M208.05 134.89c-0.37,1.87 -0.19,0.94 0.19,2.06 -0.94,0.19 -1.31,0.75 -1.87,1.5 -0.75,1.31 -0.37,1.12 -1.87,1.69 1.87,0.94 3.75,0.37 5.25,-1.5l0.19 -0.19c0,0 0,0 0,-0.19 0,1.69 0.37,3.56 1.5,4.68 0.56,0.37 0.75,0.37 1.12,0.94 -1.5,0 -2.44,0.19 -2.44,1.69 1.12,-0.19 0.94,0 2.06,0.19 1.12,0.37 1.12,0 2.25,-0.19 0,0.75 0,0.94 0.75,0.94 0,-1.31 0.37,-1.87 1.31,-2.25 12.93,-5.62 12.18,19.3 0.37,28.3 -0.56,0.19 -1.69,0.94 -2.06,1.12 -0.19,0.37 -0.94,1.87 -0.94,2.25 8.25,-1.69 14.43,-13.12 14.43,-21.17 0,-3.56 -0.37,-6 -2.25,-8.81 -1.12,-1.87 -2.81,-3.37 -5.81,-3.37 1.12,-1.31 3.19,-1.12 2.44,-3.19 -1.12,0.75 -1.87,2.06 -4.12,3.37 -1.87,0.94 -3.94,1.5 -5.81,0.37 -2.62,-2.06 -3.19,-6.93 1.87,-9.56l0 -0.94c-2.06,0.56 -2.81,2.44 -4.5,2.62 -1.12,0.19 -1.31,-0.19 -2.06,-0.37z"/>
    <path class="fil1" d="M201.87 69.87c-3.94,0 -5.81,-3 -5.43,-6.18 0,-1.5 0.94,-1.69 -0.37,-2.62 -0.19,0.75 -0.37,0.94 -0.56,1.69 0,0.75 0,1.5 -0.19,2.06 -0.19,1.69 -0.75,2.06 -2.25,2.44 0.37,0.94 0.37,1.31 1.5,1.31 -0.75,4.12 1.12,3 -0.37,5.06 2.44,-0.94 3.19,-2.81 2.62,-5.25 1.69,1.12 1.87,2.62 6,2.06 -0.94,0.94 -1.87,2.06 -0.56,3 0.19,-0.75 0.37,-0.56 1.5,-1.31 1.12,-0.56 0.75,-0.56 1.31,-1.5 2.25,0.75 0.75,-0.56 0.56,-1.31 -0.19,-1.69 1.87,-5.62 5.43,-5.81 5.06,-0.19 10.31,6.75 12.18,10.49 2.25,4.5 3.56,10.49 2.25,15.55 -0.19,0.94 0.19,1.5 0.75,2.81 1.69,-2.25 2.06,-5.81 2.06,-8.81 0,-6.56 -4.31,-15.18 -9.37,-18.74 -2.62,-1.69 -6.37,-3.56 -9.74,-2.06 -0.94,0.37 -1.31,0.75 -2.06,1.31 0.37,-2.62 0.75,-3 -0.56,-3.94 0,2.44 -0.19,4.5 -0.75,6.37 -0.75,1.31 -1.87,3.37 -3.94,3.37z"/>
    <path class="fil1" d="M169.64 194.67c-2.06,-0.37 -1.5,-0.19 -3.19,0.19 -0.94,0 -1.12,-0.19 -1.69,-0.37 1.69,3.19 3.19,2.62 5.06,2.44 -1.69,2.06 -2.06,2.06 -2.06,5.81 -0.94,-0.56 -1.69,-1.87 -3,-0.56 1.69,1.12 0.37,1.87 3,3 -0.37,0.56 -0.37,0.56 -0.19,1.31 1.31,-0.56 1.5,-1.69 4.5,0.19 6.37,4.12 0,11.62 -4.5,14.62 -3.75,2.44 -7.5,4.12 -12.18,4.68 -1.69,0.19 -3.56,0.19 -5.25,0 -1.5,-0.19 -1.69,-0.94 -4.12,0.37 3.56,1.69 4.68,2.06 8.81,2.06 4.31,0 10.12,-2.25 13.49,-4.68 2.06,-1.31 3.37,-2.44 4.68,-4.31 1.12,-1.31 3,-4.5 3,-6.18 0,-2.62 0.19,-3.75 -1.87,-6 3.19,0.56 3.19,0.75 3.94,-0.56 -3,0 -9.56,-0.56 -9.56,-4.5 0,-2.06 0.19,-4.12 3.19,-5.25 0.75,-0.37 1.87,-0.56 3,-0.37 1.31,0.19 1.69,0.75 2.44,-0.37 -2.25,-1.12 -5.81,0.19 -6,-3 -1.5,0.37 -0.94,0.56 -1.5,1.5z"/>
    <path class="fil1" d="M189.31 135.83c-1.12,-1.31 -0.75,-1.31 -3,-1.31 0.19,0.94 0.94,1.12 1.12,2.25 0.37,3.19 -4.87,2.81 -3.75,6.37 0.56,1.31 2.44,2.62 4.5,2.44 1.5,-0.19 2.81,-1.87 4.5,-2.44 5.81,-2.44 12.93,0 14.8,5.81 0.75,2.44 -0.37,1.5 2.81,2.62 0,-4.5 -2.44,-6.18 -3.56,-7.87l3.19 -0.75c-0.19,-0.56 -0.37,-1.12 -0.75,-1.69 -4.5,1.5 -6.56,-0.37 -9.74,-0.56 -3.94,-0.37 -6.75,0.56 -8.99,2.06 -1.5,0.94 -2.25,2.06 -3.75,1.5 -3.37,-1.31 0.56,-5.06 4.5,-4.12 3.56,0.56 1.87,-0.37 4.68,-0.37 -0.56,-0.94 -1.87,-1.12 -3.19,-1.69 1.31,-0.37 3.19,-0.37 3.75,-3 0.37,-0.94 0,-2.06 -0.19,-2.81 -0.37,-0.94 -0.56,-1.12 -1.31,-2.06 0.56,3.19 -1.69,2.44 -4.31,3.94 -1.12,0.75 -0.56,0.94 -1.31,1.69z"/>
    <path class="fil1" d="M182.19 87.86c0,-2.25 1.31,-3.75 2.44,-4.68 1.69,-1.5 1.12,0 3.37,-3.94 -2.62,0.75 -2.81,1.12 -3.56,1.31 2.62,-3.94 0.56,-6.37 -3.75,-7.31 0.56,0.75 1.12,0.56 1.12,2.06 0,1.69 -2.25,2.62 -1.31,6 -1.69,-0.19 -2.25,0 -3,1.31 1.31,0.37 2.44,0.19 3.19,1.5 0.56,1.5 -0.37,2.62 -0.37,4.12 0,2.81 4.12,3.37 6.18,0.75 0.94,-0.94 0.75,-2.44 1.12,-3.94 0.75,-2.25 2.44,-4.68 4.12,-5.81 3.19,-2.44 7.31,-3.56 11.43,-1.31 0.75,0.56 0.75,0.94 1.5,0.56 0.75,-0.19 1.31,-0.56 1.69,-0.94 -1.5,-2.44 -6.18,-2.81 -8.06,-3 0.56,-0.75 1.5,-1.87 1.69,-3 -0.75,-0.19 -0.75,-0.37 -1.5,-0.37 -1.31,1.69 -1.5,2.81 -4.5,4.5 -2.44,1.31 -3.19,1.87 -5.06,3.94 -3.94,4.68 -2.25,8.25 -4.12,9.37 -1.12,0.75 -2.62,0.19 -2.62,-1.12z"/>
    <path class="fil1" d="M92.81 187.36c0,2.62 0.56,1.87 2.06,4.68 3.19,5.81 0.75,14.05 -6.37,15.74 -0.94,0.19 -1.31,0.37 -1.69,2.62 2.62,0 6.56,-1.87 7.87,-3.75 0.19,1.31 0.37,2.25 0.75,3.37l1.5 -0.75c-0.19,-2.06 -0.37,-0.56 -0.37,-4.5 0,-1.12 0.75,-3.19 0.94,-4.5 0.37,-1.5 0.37,-3.75 0,-5.06 -0.37,-1.31 -0.75,-2.81 -1.5,-3.94 -0.19,-0.75 -0.75,-1.31 -0.94,-1.87 -0.56,-0.56 -1.12,-0.94 -1.12,-1.87 0,-2.44 3,-3.19 4.12,0.94 0.94,3.19 -0.56,2.62 0.19,5.43 0.19,0.75 0.19,1.5 0.37,2.06 0.94,-0.56 1.31,-2.62 1.69,-3.37 0.19,2.25 1.31,4.12 3.75,4.12 1.69,0 2.81,-0.75 3.75,-1.31 -0.37,-0.19 0.19,0 -0.37,-0.19 -1.87,-0.37 -1.5,-0.19 -2.44,-2.62 -1.31,-3.56 -1.69,-2.25 -2.44,-3.37 1.12,-0.37 1.31,-1.12 1.31,-2.25 0,-2.25 -2.25,3.19 -5.06,-1.12 -3.19,-5.25 -6,0 -6,1.5z"/>
    <path class="fil1" d="M143.59 31.64c0,-1.31 -0.56,-2.25 -0.75,-3.37 -0.56,0.19 -0.94,0.56 -1.5,0.75 0.19,1.69 0.56,3.19 0.37,5.25 -0.37,1.5 -0.94,2.81 -1.12,4.5 -0.19,4.12 0.56,6.75 2.25,9.18 0.75,1.31 2.06,2.25 1.31,3.94 -0.56,1.12 -1.87,1.5 -3.37,-0.37 -1.87,-2.81 -0.19,-5.06 -0.56,-6.75 -0.19,-0.75 -0.37,-1.87 -0.56,-2.44 -0.37,0.37 -0.75,0.94 -0.94,1.5l-0.75 1.87c-0.19,-5.62 -6.37,-4.31 -7.68,-2.44 2.25,-0.37 2.44,0.56 3,2.25 0.56,1.69 0.94,2.81 2.44,3.37 -0.37,0.56 -2.06,1.5 -1.12,3 0.37,0.19 -0.19,0.19 0.37,0 0,-0.19 2.44,-2.25 3.94,0 0.94,1.12 1.87,3.37 3.94,2.81 1.5,-0.56 2.81,-2.25 2.62,-4.5 -0.19,-1.87 -1.31,-2.06 -2.44,-4.68 -2.44,-5.81 0.19,-12.93 5.81,-14.8 0.56,-0.19 2.62,0 2.62,-2.81 -1.87,0.19 -3.19,0.56 -4.5,1.31 -2.06,0.94 -2.62,1.87 -3.37,2.44z"/>
    <path class="fil1" d="M31.91 160.75c0.56,0.75 2.25,1.69 3.19,2.25 1.5,0.56 3,0.75 4.87,0.75 -0.56,0.94 -1.31,1.69 -1.69,3l1.5 0.56c2.81,-6 9.18,-4.68 11.99,-13.3 0.75,-2.25 0.19,-3.75 1.5,-4.68 0.75,-0.37 1.69,-0.37 2.25,0.19 1.31,0.94 0.19,4.31 -2.44,6 -2.06,1.5 -0.94,0.75 -2.81,3.56 1.69,-0.19 2.25,-0.94 3.37,-1.12 -0.75,1.5 -1.69,2.81 -0.37,4.68 0.75,1.12 2.62,2.25 4.31,2.44 -1.12,-1.12 -1.69,-1.12 -0.37,-3.75 0.75,-1.87 1.12,-2.25 0.56,-4.31 1.5,0.56 2.25,-0.37 3,-1.12 -0.75,-0.56 -3.94,-0.37 -3.19,-3.37 1.69,-6.93 -4.87,-5.06 -6.18,-2.81 -0.75,1.31 0,2.44 -1.5,5.43 -2.62,5.06 -8.81,7.87 -13.49,5.81 -0.75,-0.19 -1.87,-1.12 -2.25,-1.12 -0.56,-0.19 -1.69,0.56 -2.25,0.94z"/>
    <path class="fil1" d="M31.72 94.79c-1.87,0 -2.44,0.56 -3.37,0.56l0.75 1.69c4.87,-1.69 6.18,0.75 11.99,0.75 3.94,0 6.18,-1.87 8.43,-3.37 2.62,-2.06 5.81,2.62 0,3.94 -1.69,0.19 -2.44,-0.19 -3.56,-0.37 -1.12,-0.19 -2.06,0.56 -3.56,0.56l3.19 1.87c-3.56,0.37 -4.68,2.81 -3.37,5.81 0.19,0.75 0.37,1.31 0.94,1.69 -0.37,-4.12 4.87,-1.87 5.62,-5.25 1.31,0.56 -0.19,1.12 3.19,1.12 -0.37,-1.12 -1.12,-1.31 -1.12,-2.81 0,-2.06 3.19,-2.25 3.75,-4.31 0.56,-1.87 -1.87,-3.94 -3.94,-3.94 -1.31,0 -1.87,0.56 -2.81,1.12 -6.75,5.06 -16.86,1.31 -17.43,-6.37 -0.94,-0.19 -1.31,-0.56 -2.44,-0.56 0,4.5 2.62,6.37 3.75,7.87z"/>
    <path class="fil1" d="M74.63 39.89c-0.75,-0.19 -1.5,-1.31 -3,-1.69 -0.19,0.56 -0.37,0.94 -0.56,1.5 0.75,0.75 2.25,0.94 4.12,3.94 1.31,1.87 1.31,2.62 3.56,4.68 1.5,1.5 2.62,2.44 4.87,3.19 3,1.31 5.62,0.19 5.62,3 0,2.81 -4.68,1.5 -6.37,-1.12 -0.56,-0.75 -0.37,-1.12 -1.5,-1.69 -0.56,-0.37 -1.5,-1.12 -2.06,-1.31 0.19,1.69 0.94,2.25 1.12,3.37 -1.5,-0.94 -1.5,-1.12 -3.37,-1.12 -1.87,0 -3.75,2.81 -3.75,4.87 1.12,-0.75 0.94,-1.69 3.19,-0.75 3.19,1.69 2.62,1.5 4.87,0.94 -0.75,1.31 0.19,2.81 1.31,3 0.19,-4.68 3.37,-2.81 5.81,-2.81 3.19,0 2.81,-6.37 -1.31,-6.93 -1.5,-0.19 -2.25,-0.37 -3.37,-0.94 -5.62,-2.25 -9.18,-9.18 -6,-14.8 0.94,-1.5 1.12,-0.75 -0.19,-3.37 -0.75,0.56 -1.69,2.25 -2.25,3.19 -0.75,1.87 -0.75,2.62 -0.75,4.87z"/>
    <path class="fil1" d="M161.58 198.04c0,4.87 -2.06,5.62 -1.87,6.56 0.19,0.37 0.75,1.5 0.94,1.87 0.94,-0.37 1.87,-2.25 2.25,-3.19 0.56,-1.87 0.75,-2.62 0.75,-4.87 1.12,0.56 1.69,1.31 3,1.69l0.56 -1.69c-5.43,-1.31 -4.5,-10.87 -16.12,-12.37 -2.81,-0.56 -2.62,-3.75 -0.37,-3.75 3.94,0 4.68,3.56 6.18,4.31 0.94,0.56 1.31,0.94 2.06,1.5 0,-1.31 -0.75,-2.62 -1.12,-3.37 0.56,0.19 2.62,1.87 4.87,0.37 1.12,-0.75 2.25,-2.62 2.25,-4.31 -1.87,1.87 -1.69,1.31 -4.68,0 -1.87,-0.94 -1.5,-0.37 -3.37,-0.19 0.75,-1.5 -0.37,-2.44 -1.12,-3 0,0 0,0 0,0.19 -0.19,0.75 -0.75,2.81 -2.06,3 -1.69,0.37 -3.19,-0.94 -4.87,-0.19 -2.44,1.12 -1.12,6.18 1.87,6.75 3.56,0.56 5.25,1.12 7.31,3.37 1.69,1.5 3.56,4.12 3.56,7.31z"/>
    <path class="fil1" d="M37.15 135.46c-0.56,-0.56 -1.87,-2.06 -3.19,-1.31 -0.56,0.19 -0.37,0 -0.56,0.37 2.25,0.56 1.5,2.06 3.19,2.44l-0.56 0.37c-0.19,0.37 -0.19,0.19 -0.19,0.75 3.37,-0.56 2.44,1.31 5.43,2.44 -0.56,1.12 -1.87,2.62 -2.25,4.12 0.56,-0.19 2.62,-0.75 2.81,-1.12 0.37,-0.19 0.19,-0.56 1.12,-1.5 1.87,-1.69 3.56,-2.06 6,-2.06 0.94,0 3,1.12 3.56,1.69 1.12,1.5 -0.94,4.12 -3.37,1.87 -0.56,-0.37 -2.62,-1.87 -3.56,-1.87 -0.56,-0.19 -1.12,0.37 -1.5,0.94 1.5,0.56 1.87,0.56 3.19,1.5 1.31,0.94 1.5,1.5 3.56,1.5 2.06,0 6.56,-3 1.87,-6 -1.31,-0.94 -1.87,-0.94 -1.87,-2.62 0,-1.12 0.94,-1.5 1.12,-2.44 -2.06,0 -2.06,0 -3,1.31 -0.56,-0.56 -0.37,-1.5 -2.81,-2.44 -2.44,-0.75 -3.19,-0.75 -3,-3 -0.56,0.75 -1.5,1.87 -1.5,3.75 0,1.31 0.56,2.25 1.12,2.81 0.94,0.94 1.31,0.75 2.81,1.12 -4.87,1.87 -9.18,-2.81 -6.93,-7.12 0.75,-1.31 1.87,-1.69 2.62,-2.81 -1.69,0 -2.44,1.31 -3.19,2.62 -1.12,1.5 -0.94,2.81 -0.94,4.68z"/>
    <path class="fil1" d="M81.38 180.62c-1.69,-0.19 -1.5,-0.75 -3.19,0.19 -3.37,1.5 -3.19,1.69 -4.87,0 0,1.5 1.12,3.56 2.06,4.31 2.44,1.5 4.31,-0.19 5.06,-0.37 -0.56,1.12 -1.12,1.87 -2.44,2.62 -2.25,1.5 -5.81,0.75 -6.93,-2.06 -0.75,-1.5 -0.56,-2.81 -0.56,-4.68 -1.69,1.12 -0.56,5.25 0.56,6.56 0.56,0.75 1.12,0.94 1.5,1.5 -2.06,0 -3,0.37 -3.37,1.87 2.25,-0.94 1.5,0.19 4.12,-0.19l0.37 0.94c1.87,-2.06 1.31,-1.12 3.94,-1.5 0.56,-0.19 0.94,-0.37 1.69,-0.37 0.19,2.25 0.19,1.87 0.94,3.56l0.37 1.12c0,-0.75 0.37,-1.31 0.75,-1.87 0.75,-1.31 0.19,-0.75 0.19,-3.56 0,-5.25 7.68,-8.62 7.68,-4.68 0,2.62 -2.44,1.5 -5.81,2.81 -0.75,0.37 -0.94,0.75 -0.94,2.06 4.12,-1.87 2.06,-0.75 5.25,-1.69 1.69,-0.37 3,-2.06 2.81,-4.12 0,-4.87 -5.25,-0.94 -6.93,-2.81 -0.56,-0.37 -0.94,-1.69 -0.94,-2.62 -0.94,0.19 -2.06,1.69 -1.31,3z"/>
    <path class="fil1" d="M137.03 187.55c-1.12,0 -1.87,-1.12 -2.62,-1.12 0,1.12 -0.19,2.44 1.31,2.81 -0.19,0.56 -0.75,0.56 -1.31,1.12 -1.5,1.69 -0.94,5.62 -4.12,4.68 0.37,0.56 1.31,1.12 2.06,1.31 1.87,0.75 3.75,0.37 4.87,-1.12 0.56,-0.94 0.37,-1.69 0.94,-2.62 0,1.12 1.31,3.56 -0.94,6 -2.06,2.62 -6,2.06 -8.06,-0.37 -2.25,-3 -1.12,3.37 6.18,3 -0.56,0.56 -0.94,0.37 -1.31,1.5 -0.37,1.12 -0.19,1.5 0.19,2.44 0.56,-1.12 0,-1.12 1.12,-1.87 0.94,-0.56 1.31,-0.37 1.5,-1.5 0.56,0.37 0.37,0.56 1.12,0.75 -0.19,-3.94 0.56,-1.5 2.44,-5.43 0.56,0.19 2.25,1.69 4.31,2.25 -0.37,-0.75 -0.56,-1.12 -0.75,-2.25 -0.37,-1.12 -0.19,-0.19 -1.69,-1.5 -4.31,-3.94 -1.69,-10.87 0.75,-9.93 0.94,0.19 1.31,1.12 1.31,2.06 0,1.5 -4.68,4.68 -1.87,6.56 0.19,-0.37 0.37,-1.12 0.56,-1.69 0.37,-0.56 0.56,-0.94 0.94,-1.31 1.31,-2.25 1.5,-1.5 1.5,-4.31 0,-1.31 -1.69,-3.37 -3.37,-3.37 -2.44,0 -2.44,3.94 -5.06,3.94z"/>
    <path class="fil1" d="M101.43 36.52c-0.56,-0.37 -0.56,-0.75 -1.31,-0.75 1.12,2.44 -0.94,2.62 -2.25,5.62 -1.12,-0.75 -2.81,-2.06 -4.31,-2.44 1.69,5.25 1.31,1.87 3.56,5.25 1.31,1.87 1.87,4.68 0.56,6.93 -2.06,3.75 -4.68,0.56 -3.37,-1.5 1.5,-2.25 3.56,-3.75 1.5,-5.62 -0.19,0.37 -0.75,2.25 -1.87,3.75 -2.06,2.62 -1.12,5.06 0.75,6.37 3.75,2.81 3.94,-5.43 8.06,-2.81 0.75,0.56 0.56,0.75 0.94,0.56 0.37,-0.56 0.19,-1.31 0,-1.87 -0.19,-0.37 -0.56,-0.75 -0.94,-0.94l-0.19 -0.19c3.56,-1.12 1.31,-6.37 5.43,-5.62 -0.56,-0.94 -6.18,-3.94 -7.68,1.69l-0.19 0.75c0,-2.06 -0.94,-2.06 0,-4.68 0.56,-1.12 1.69,-2.06 2.81,-2.62 4.12,-1.69 6.18,2.44 7.31,2.81 -0.19,-1.5 -1.31,-2.25 -2.44,-3.19 -1.5,-0.94 -2.62,-0.94 -4.87,-0.94 1.12,-0.94 2.06,-1.87 1.12,-3.94 -0.19,0.56 0,0.94 -1.12,1.87 -0.75,0.56 -1.31,0.37 -1.5,1.5z"/>
    <path class="fil1" d="M187.44 100.98c0,1.5 -0.75,1.69 -1.12,2.81 3.19,0.19 1.87,-0.37 3.19,-1.12 0.75,3.19 6.75,1.69 5.43,5.43 1.5,-1.12 3.56,-7.12 -2.25,-7.68 1.5,-1.12 7.5,-1.12 7.5,4.68 0,2.81 -2.44,3.75 -3.19,5.06 1.31,0 1.31,-0.19 1.87,-0.94 2.81,-2.62 2.06,-3.56 2.25,-6.37 1.12,1.69 2.25,1.69 3.75,1.31 -0.75,-0.56 -0.75,0 -1.69,-1.31 -0.37,-0.75 -0.75,-1.12 -1.5,-1.5 0.56,-0.37 0.75,-0.19 0.75,-1.12 -2.81,0.94 -3.19,-1.87 -5.43,-2.25 0.19,-0.56 0.94,-1.31 1.31,-1.87l0.94 -2.44c-0.56,0.19 -0.94,0.37 -1.5,0.56 -0.94,0.37 -0.94,0 -1.5,0.75 -2.06,3.19 -6.18,4.31 -9.37,2.62 -3.37,-2.06 -0.19,-4.68 1.87,-3.19 1.5,1.12 3.94,3.75 5.43,1.31 -3.75,-0.75 -3.94,-3 -6.75,-3 -1.87,0 -4.31,2.06 -3.75,3.94 0.56,2.06 3.75,2.44 3.75,4.31z"/>
    <path class="fil1" d="M180.32 149.89c0,1.87 2.06,5.43 -2.81,5.81 0.75,1.31 1.69,1.87 3,1.31 -0.94,4.12 3,5.81 0.56,7.68 0,0 -0.19,0.19 -0.19,0.19 0,0 -0.19,0 -0.19,0.19 0,0 0,0 0,0 1.69,-0.19 3.37,-1.12 4.31,-2.06 1.31,-2.06 0.56,-3.56 -0.37,-5.06 3.56,0.94 5.06,7.31 0.75,9.37 -1.31,0.56 -3,0.56 -4.87,0.56 0.94,0.94 0.94,0.75 3,0.75 2.62,0 4.31,-2.25 5.06,-2.81 0,1.87 0.37,3.19 2.06,3.37 -1.12,-1.69 -0.19,-1.31 -0.37,-4.12l1.12 -0.19c-0.75,-0.94 -1.5,-0.56 -1.5,-2.44 -0.19,-1.31 -0.19,-2.44 -0.75,-3.37 1.31,-0.19 3.75,-0.56 4.87,-1.31 -0.75,-0.19 -1.31,-0.37 -2.06,-0.75 -1.12,-0.75 -0.37,-0.19 -3.37,-0.19 -2.62,0 -6.37,-2.62 -6.37,-6.18 0,-2.25 3.37,-2.25 3.75,0.37 0.19,1.5 0.19,2.06 0.56,3.19 0.37,1.5 0.56,1.5 2.25,1.69 -0.19,-1.12 -0.94,-1.87 -1.31,-3.37 -0.19,-1.87 0,-2.44 -1.12,-3.56 -2.44,-2.25 -6,-1.31 -6,0.94z"/>
    <path class="fil1" d="M48.21 70.43c0,1.31 -0.56,2.06 0,3 -0.75,-0.19 -0.56,-0.37 -1.31,0 0.56,1.12 1.31,0.56 1.5,2.44 0.19,2.25 0,1.31 0.56,3.37 -2.06,0 -3,1.12 -4.5,1.12 0.37,0.75 0.37,0.19 2.06,1.12 1.12,0.75 4.12,-1.12 7.31,1.87 1.12,0.94 2.25,2.44 2.25,4.5 0,2.06 -3.37,2.25 -3.75,-0.56 -0.56,-4.31 -0.56,-4.5 -2.81,-4.68 1.87,4.12 0.75,1.87 1.5,5.25 0.94,3.37 6.93,3.94 6.93,0.37 0,-1.31 -1.5,-3.94 0.75,-5.06 0.75,-0.37 1.12,-0.19 1.87,-0.56l-0.19 -0.37c-0.75,-1.5 -1.87,-1.12 -2.62,-0.94 0.94,-3.56 -1.31,-3.94 -1.31,-6.18 0,-1.12 0.75,-1.31 1.12,-1.87 -1.87,0.56 -3.37,0.94 -4.31,2.44 -1.31,1.87 -0.37,3.37 0.56,4.87 -1.69,-0.37 -3.94,-3 -3.56,-5.81 0.19,-2.44 2.44,-4.31 5.43,-4.31l2.06 0c-1.12,-0.75 -0.19,-0.75 -2.62,-0.75 -3,0 -4.68,2.25 -5.43,2.81 0,-2.06 -0.56,-3 -2.06,-3.37 0.19,0.37 0.56,0.56 0.56,1.31z"/>
    <path class="fil1" d="M155.77 49.63c-0.94,0.19 -1.69,0.56 -2.44,0.94 -1.12,0.37 -2.25,0.37 -3,0.56 -1.5,0.56 -2.81,2.06 -2.62,4.31 0,2.62 1.87,2.62 4.31,2.25 2.44,-0.56 3.56,0.37 3.56,3 1.12,-0.19 2.06,-1.69 1.31,-3 2.25,0.56 2.44,0.37 4.31,-0.56 2.06,-0.94 2.06,-1.12 3.75,0.37 -0.19,-2.44 -1.87,-5.25 -4.87,-4.87 -0.94,0.19 -1.5,0.75 -2.25,1.12 1.12,-3.75 7.31,-5.25 9.37,-0.75 0.75,1.12 0.56,3 0.56,4.68 0.75,-0.56 0.75,-0.56 0.75,-2.06 0,-3.56 -1.31,-4.31 -2.81,-6 1.5,0.19 3.19,-0.19 3.37,-1.87 -1.87,0.94 -2.81,-0.37 -4.12,0.37 0,-0.94 0.19,-0.94 -0.37,-1.31 -0.56,2.06 -3,1.5 -4.12,1.69 -0.75,0.19 -0.94,0.56 -1.31,0.37 -0.37,-0.75 -0.19,-1.5 -0.56,-2.44 -0.37,-0.56 -0.56,-1.31 -0.75,-2.25 -1.87,4.68 -1.12,1.12 -1.12,4.68 0.19,6.37 -6.18,8.25 -7.5,6.75 -0.75,-1.12 0,-2.62 0.94,-3 0.75,-0.37 2.44,-0.37 3.56,-0.75 1.5,-0.56 1.87,-0.37 2.06,-2.25z"/>
    <path class="fil1" d="M17.48 166.19c0.37,1.5 2.81,4.31 4.87,2.25 0.19,-0.19 0.56,-0.56 0.75,-0.75l0.56 -0.94c0,1.5 0,3 0.19,4.5 0.37,1.69 0.75,2.25 2.62,2.25 -0.19,-0.94 -0.56,-1.69 -0.75,-2.62 0,-1.12 0,-2.44 0,-3.56 0.19,0.19 0.19,4.31 3.75,5.06 -2.06,-3 0.75,-4.31 -1.31,-6.93l1.87 0.19c-0.37,-0.94 -3.19,-2.44 -0.37,-4.87 3.19,-2.44 8.25,-3.94 12.37,-3.19 1.5,0.19 2.06,0.37 3.37,0.56 0.94,0.37 1.69,-0.56 2.25,-1.5 -2.62,-0.56 -5.43,-1.87 -9.18,-1.5 -1.87,0.37 -2.81,0.37 -4.5,0.94 -1.69,0.37 -2.62,0.75 -3.94,1.5 -0.94,0.56 -2.25,1.5 -3,2.25 -1.69,1.69 -2.25,3.94 -5.06,5.81 -1.5,1.12 -2.44,0.75 -4.5,0.56z"/>
    <path class="fil1" d="M212.55 68.37l0 2.62c-0.37,-0.75 -0.37,-3.94 -3.75,-5.06 1.31,1.87 0.56,2.44 0.56,5.43 0,0.56 0.37,0.94 0.56,1.5 -0.75,-0.19 -0.56,-0.19 -1.69,-0.19 0.37,0.94 1.87,1.31 1.5,3 -0.19,1.31 -1.5,2.06 -2.44,2.62 -4.12,2.81 -9.37,3.37 -14.24,1.87 -0.94,-0.19 -1.5,0.19 -2.44,1.5 1.87,1.12 6.56,1.5 9.18,1.5 3.94,0 8.43,-2.25 10.68,-4.12 1.69,-1.31 2.06,-2.44 3.37,-3.94 1.5,-2.25 3,-3.19 5.43,-3.19 0.56,0 1.12,0.19 1.69,0.37 -2.06,-3.94 -4.12,-4.12 -6.18,-0.75l-0.19 0.19c0,-1.69 0,-3 -0.19,-4.68 -0.37,-1.87 -0.75,-1.87 -2.62,-2.25 0.19,1.12 0.75,2.25 0.75,3.56z"/>
    <path class="fil1" d="M165.89 221.09c0.94,-0.19 5.62,-3.19 1.69,-5.81l-0.94 -0.56c1.69,0 3,0 4.5,-0.19 1.69,-0.37 2.25,-0.56 2.25,-2.62 -2.06,0.19 -1.31,0.94 -6.18,0.75 0.56,-0.37 1.87,0 3.19,-1.12 0.75,-0.37 1.69,-1.69 1.87,-2.62 -3,1.87 -3.56,-0.56 -6.75,1.12l0 -1.69c-1.69,1.12 -3,3.56 -5.81,-1.31 -2.44,-3.75 -3.19,-8.81 -1.87,-13.49 0.37,-0.94 0.75,-1.69 -1.31,-2.81 -0.75,4.31 -1.5,3 -1.31,9.56 0,4.12 2.25,8.81 4.87,11.43 1.69,1.31 8.25,4.5 5.81,9.37z"/>
    <path class="fil1" d="M13.54 82.43c0,3.19 1.69,3.19 4.5,2.81l-0.56 0.75c-0.94,0.75 -1.5,1.31 -2.25,2.25 -1.12,1.69 -1.12,1.87 -0.56,2.81 0.19,0.37 0,0.19 0.19,0.56 0,0 0,0 0.19,0 0,0 0,0.19 0,0.19l0.19 0.19c0.75,-0.94 1.5,-3.19 3.37,-4.31 -0.37,0.94 -0.94,1.31 -0.94,2.44 -0.19,1.31 0,2.25 0.37,3.19 0.56,-1.12 -0.19,-1.12 2.06,-2.81 2.06,-1.5 1.5,-1.87 2.06,-2.81 0.56,0.75 0.37,0.75 1.31,1.31 -0.19,-2.62 0.37,-4.12 3.19,-3.56 3.94,0.56 7.12,2.44 9.93,5.06 0.75,0.94 2.62,3.37 3,4.68l2.44 0c-0.56,-2.44 -4.31,-6.75 -6.18,-8.25 -4.12,-3.19 -8.06,-4.87 -13.68,-3.75 -6.75,1.5 -7.5,-2.25 -8.25,-2.81 -0.19,0.56 -0.37,1.31 -0.37,2.06z"/>
    <path class="fil1" d="M82.88 212.1c0,4.5 0.56,3.37 0.56,7.68 0,3.37 -2.62,4.12 -3.19,4.68 1.5,0.19 0.94,0.37 2.81,0.37 2.25,0 2.44,-1.69 2.44,-3 0,-0.56 -0.37,-1.12 -0.37,-1.69l1.31 1.5c1.5,1.5 3.94,3.56 5.43,1.5l-2.44 -1.69c-0.75,-0.37 -1.87,-1.31 -2.06,-2.06 2.25,1.31 2.06,1.87 6,0.94 -0.56,-0.37 -1.5,0 -2.81,-2.06 -0.94,-1.12 -1.31,-1.5 -2.81,-2.06 0.56,-0.37 0.94,-0.56 1.12,-1.31 -2.25,0 -3.56,0 -3.56,-2.62 0,-3 2.06,-6.75 3.37,-8.43 1.69,-2.25 3.19,-3.37 5.62,-4.68 0.75,-0.56 1.12,-0.94 0.75,-2.62l-0.37 0c-1.5,0.19 -6.37,4.12 -7.68,5.81 -1.87,2.62 -4.12,6.18 -4.12,9.74z"/>
    <path class="fil1" d="M212.36 155.51c3.75,0 4.68,-0.94 8.06,-0.56 2.25,0.37 2.81,1.5 3.94,3.19 0.75,-2.44 0.94,-5.25 -2.44,-5.25 -0.56,0 -1.31,0.37 -1.87,0.37 0.19,-0.37 3.75,-3.19 3.94,-5.06 0.19,-0.19 0,-0.37 -0.19,-0.94l-0.56 -0.56c-0.19,-0.37 0,-0.19 -0.19,-0.37 -0.75,1.31 -1.87,3.56 -3.19,4.12 0.56,-2.25 1.5,-1.31 0.37,-5.43 0,0 0,0 0,0.19 -0.37,2.62 -3.37,2.44 -3.94,5.25 -0.37,-0.19 -0.19,0 -0.37,-0.19 -0.37,-0.37 -0.19,-0.19 -0.37,-0.37 -0.37,-0.37 -0.19,-0.19 -0.75,-0.56 -0.19,2.06 0.37,4.31 -3.56,3.56 -2.25,-0.37 -3.94,-0.94 -5.62,-1.87 -1.69,-1.12 -2.81,-2.06 -4.12,-3.37 -1.5,-1.69 -2.62,-4.31 -3.19,-4.5l-2.06 0c0.56,2.44 4.12,6.37 6,8.25 2.06,1.69 6.56,4.12 10.12,4.12z"/>
    <path class="fil1" d="M69.2 20.59c0,2.06 1.69,2.25 2.81,3.19 -1.87,-0.19 -6.18,-0.37 -6.75,1.12 -0.19,0.37 -0.37,0.94 -0.37,1.5 2.44,-0.37 1.69,-0.94 5.81,-0.75 -1.12,0.56 -4.12,0.94 -4.68,3.75 3,-1.87 3.75,0.94 6.75,-1.12l0 1.87c0.56,-0.56 0.37,-0.56 0.94,-1.12 0.94,-0.56 1.12,-0.56 2.06,-0.56 1.87,0 4.12,5.25 4.68,7.12 1.5,6 -0.56,9.93 -0.37,10.49 0.37,0.56 0.94,1.31 1.69,1.5 0.94,-4.12 1.5,-3.37 1.31,-9.37 -0.19,-4.31 -2.06,-8.43 -4.87,-11.24 -1.69,-1.69 -3.94,-2.44 -5.62,-5.25 -1.12,-1.87 -0.56,-2.25 -0.37,-4.31 -1.12,0.37 -3,1.87 -3,3.19z"/>
    <path class="fil1" d="M153.15 18.15c-0.56,-0.37 -0.94,-1.31 -3,-2.81 -1.69,-1.12 -2.25,-1.5 -3.94,-0.19 0.94,0.75 3.56,1.69 4.12,3.19 -0.37,0 -3.56,-1.5 -5.43,-0.19 3.19,0.19 2.25,3 5.81,3.94 -0.75,0.56 -1.12,0.56 -1.31,1.31 3.37,0 3.94,0.94 3.37,4.31 -0.75,4.68 -4.5,9.37 -8.62,11.43 -1.31,0.56 -1.31,0.94 -0.94,2.81 3.56,-0.75 9.37,-6.56 11.06,-10.87 1.12,-3.19 1.5,-5.43 0.75,-9.37 -0.37,-2.25 -0.37,-5.06 1.31,-6.56 0.56,-0.75 0.94,-0.75 1.69,-1.12 -0.19,-0.19 0,0 -0.37,-0.19 -0.94,-0.37 -3,-0.56 -3.94,0.19 -1.5,1.12 -0.75,2.44 -0.56,4.12z"/>
    <path class="fil1" d="M213.3 82.8l-2.25 0.19 0.37 2.44c3,-0.19 3.37,0.19 3.37,3.56 0.94,-0.56 0.75,-0.75 1.31,-1.12 1.12,3.37 3.94,2.44 3.94,5.43 0.56,-0.56 0.75,-2.06 0.75,-3 -0.19,-1.31 -0.75,-1.69 -1.12,-2.62 2.44,1.5 4.12,5.43 4.31,8.25 0,0.75 -0.37,1.5 1.5,2.81 1.12,-4.68 -1.69,-10.87 -5.62,-13.68 1.31,0.19 6.18,2.44 4.5,-4.68 -1.12,0.75 -0.75,2.44 -4.5,3 -2.44,0.56 -4.31,-0.56 -6.56,-0.56z"/>
    <path class="fil1" d="M12.61 140.89c0,8.62 4.68,11.06 5.62,12.37 -1.69,-0.19 -0.56,-0.37 -2.81,-0.37 -1.69,0 -1.87,2.06 -1.87,3.37 0,0.37 0.37,1.31 0.37,1.69 1.12,-0.94 1.12,-3.56 7.31,-3 2.44,0.19 2.25,0.94 6,0.37l-0.37 -2.44c-2.06,0.37 -3.56,0.37 -3.37,-3.37 -0.56,0.19 -0.19,0 -0.75,0.37 -0.37,0.19 -0.19,0.19 -0.56,0.56 -0.75,-1.12 -0.37,-1.31 -2.06,-2.62 -0.94,-0.56 -1.87,-1.31 -1.87,-2.81 -1.87,1.87 0.19,5.25 0.37,5.62 -2.25,-1.5 -3.94,-5.06 -4.31,-8.06 0,-0.94 0.37,-1.5 -1.5,-2.81l-0.19 1.12z"/>
    <path class="fil1" d="M158.58 28.65c0.75,0.56 1.12,0.94 1.87,1.31 0.75,-0.56 2.06,-3.19 5.06,0.19l0 -1.87c3.19,2.06 3.56,-0.75 6.75,1.12 -0.19,-0.94 -0.94,-1.87 -1.69,-2.44 -1.31,-0.94 -1.87,-0.75 -3,-1.31l2.06 0c2.81,0 6.93,2.25 8.06,3.75l2.06 0c-0.19,-0.37 -0.37,-0.56 -0.75,-1.12 -0.94,-1.12 -2.25,-2.06 -3.56,-2.81 -3.37,-1.69 -5.43,-2.06 -9.18,-1.69 1.12,-0.75 3,-1.31 2.81,-3.19 -0.19,-1.31 -1.87,-2.81 -3,-3.19 0.19,1.87 1.12,3.94 -2.25,6.75 -2.06,1.5 -4.12,2.44 -5.25,4.5z"/>
    <path class="fil1" d="M208.24 160.57c0.75,0.37 1.69,1.31 1.69,2.44 -0.19,1.5 -1.31,1.69 -1.69,2.62l1.69 0c-1.12,1.12 -0.37,3 -0.37,5.25 0,0.56 -0.56,1.12 -0.75,1.5 2.06,-0.56 3.56,-2.44 3.56,-5.06l0.19 0c0,4.5 -0.19,6 -2.81,9.37 -1.12,1.69 -0.94,0.56 -0.94,3.19 2.25,-0.94 4.87,-5.62 5.62,-8.62 0.19,-1.69 0,-3 0.19,-4.68 0.75,1.12 1.69,2.81 3.37,2.62 1.31,-0.37 2.44,-2.06 3,-3.19 -5.62,2.44 -7.5,-4.68 -11.24,-7.31 -0.37,0.19 -1.31,1.5 -1.5,1.87z"/>
    <path class="fil1" d="M85.13 18.15c0.19,-1.69 0.94,-3 -0.56,-4.12 -1.12,-0.75 -2.81,-0.56 -4.31,0 1.12,0.94 3.19,0.94 3.19,5.25 0,3.56 -0.75,2.81 -0.56,7.87l2.44 -0.19c0.19,-2.62 -0.37,-3.56 3.56,-3.56 -0.19,-0.56 -0.56,-0.94 -1.31,-1.31 1.69,-0.75 1.87,-0.56 2.81,-2.06 1.69,-2.06 1.69,-1.5 3,-2.06 -1.12,-0.19 -1.5,-0.37 -3,-0.37 -1.31,0 -1.69,0.56 -2.62,0.94 1.31,-2.44 6,-4.31 9.56,-4.31 0.56,-0.75 0.94,-0.94 1.31,-1.5 -2.62,0 -5.06,-0.19 -8.06,1.12 -4.12,2.06 -4.5,3.56 -5.43,4.31z"/>
    <path class="fil1" d="M72.76 210.04c-3.37,-1.87 -3.19,0.94 -6.75,-1.12 1.12,3.56 4.68,3.56 5.06,3.75 -3.75,0.19 -6.93,-0.37 -9.93,-3 -0.94,-1.12 -0.75,-0.75 -2.62,-0.75 0.37,1.31 3.56,3.56 5.06,4.31 2.62,1.12 4.68,1.5 8.06,1.5l-0.75 0.56c-4.12,2.44 0.37,5.62 1.5,5.81 -2.25,-4.5 3.37,-7.5 4.87,-8.81 0.94,-0.56 2.06,-1.69 2.44,-2.62 -0.56,-0.37 -1.31,-0.75 -1.87,-1.31 -0.56,0.56 -1.12,1.69 -2.44,1.69 -1.12,-0.19 -1.87,-1.12 -2.62,-1.69l0 1.69z"/>
    <path class="fil1" d="M152.96 211.54c0,3 -0.56,3.37 -3.56,3.37 0.19,0.75 0.75,0.94 1.31,1.31 -2.62,0.56 -2.44,2.06 -3.94,3.37 -0.75,0.56 -1.31,0.37 -1.87,0.75 3.56,0.94 3.75,0.56 6,-0.94 -0.56,1.5 -3.19,3 -4.87,3.75 -2.62,1.31 -4.5,0.56 -5.25,1.12 -0.37,0.37 -0.56,0.75 -1.12,1.12 0.19,0.19 0,0 0.56,0.19 2.25,0.75 6.56,-0.75 8.25,-1.69 3.19,-1.5 3.75,-3 4.68,-3.75 -0.19,1.5 -0.94,3 0.37,4.12 1.31,1.12 3,0.37 4.5,0.19 -1.12,-0.94 -3.56,-1.31 -3.19,-6.75 0.19,-2.81 0.94,-2.62 0.56,-6.56l-2.44 0.37z"/>
    <path class="fil1" d="M23.66 71.74l-0.56 -0.75c-0.19,-0.56 -0.37,-0.56 -0.56,-0.94 -0.56,-0.56 -0.94,-0.94 -2.25,-0.75 -1.31,0.19 -2.44,1.87 -3,3 3,-0.75 4.68,-0.75 7.5,3 1.31,1.87 1.87,3.19 3.75,4.31 0.56,-0.37 1.12,-1.31 1.5,-1.87 -3.56,-2.44 -0.37,-3.94 0,-5.06 -0.94,0 -0.94,0 -1.69,0.19 0.19,-0.75 0.75,-0.56 0.56,-2.81 -0.19,-2.06 -0.56,-1.69 0.37,-3.94 -3.37,0.94 -3.19,4.31 -3.56,5.06 -0.37,-4.12 0.94,-7.87 3.75,-10.68l0 -2.06c-1.69,0.94 -3.56,3.37 -4.31,5.25 -1.31,2.62 -1.5,4.31 -1.5,8.06z"/>
    <path class="fil1" d="M8.11 126.84c0,1.31 0.75,2.25 0.75,3.56 -2.06,-2.25 -3,-2.44 -6.18,-2.25 3.94,3 2.25,5.06 6,6.37 -0.37,0.56 -0.56,0.94 -0.56,1.87 3,-1.5 4.68,2.44 7.31,4.5 0.37,0.37 0.37,0.56 0.94,0.94 0.56,0.37 0.56,0.19 0.94,0.75 -0.56,0.19 -1.12,0.19 -1.69,0.37l0 1.12c1.31,0 1.87,-1.31 6,0.19 1.12,0.37 1.5,0.94 1.5,2.25 0.75,-0.19 0.19,0.19 0.56,-0.37l0.37 -0.37c0,0 0,-0.19 0,-0.19 1.87,0.75 2.25,0.19 3.19,0l0.56 -0.19c0,0 0.19,0 0.19,0l0.19 0c-0.19,-1.31 -0.94,-1.5 -2.44,-1.5 1.5,-2.06 -0.94,-0.19 -1.69,0 -2.44,0.37 -7.31,-2.25 -9.18,-5.06 -2.62,-3.37 -3.37,-5.62 -4.5,-9.74 -0.56,-2.44 0.37,-2.62 -2.25,-2.25z"/>
    <path class="fil1" d="M214.24 92.73c-2.81,-0.75 -2.81,0.56 -4.12,0 0,1.5 0.94,1.69 2.44,1.69 -0.37,0.56 -0.37,0.19 -0.56,0.94 0.75,0.19 0.56,0 1.31,-0.37 1.69,-0.94 3.19,-0.19 5.06,0.56 3,0.94 5.25,3.75 6.75,6.37 1.31,2.25 1.87,3.75 2.44,6.18 1.12,3.94 0.19,3.75 2.62,3.37 -0.19,-1.12 -0.75,-2.44 -0.75,-3.37 1.87,1.5 2.25,2.44 6.18,2.06 -3,-1.5 -3,-6 -6,-6.18 0.37,-0.94 0.56,-0.56 0.56,-1.87 -1.31,0.37 -2.06,0.37 -3,-0.37 -0.75,-0.56 -1.5,-1.31 -2.06,-2.06 -0.75,-0.94 -2.06,-2.25 -3.19,-3 -0.37,-0.37 -0.75,-0.56 -1.12,-0.94 0.94,0 1.12,0 2.06,-0.37l-0.37 -1.12c-2.44,0.56 -2.81,0.94 -6,-0.19 -0.94,-0.37 -1.31,-0.94 -1.31,-2.25 -0.94,0.19 -0.37,0 -0.94,0.94z"/>
    <path class="fil1" d="M143.97 212.85c-0.37,-0.56 -0.37,-0.56 -0.94,-0.75 -0.56,1.5 1.12,1.12 0.56,3.75 -1.31,6.93 -7.5,10.31 -13.68,11.99 -3.37,0.75 -3.37,0.19 -3.19,1.5 0.19,1.87 0.94,0.37 3.56,0.19 -0.56,0.56 -1.12,0.94 -1.5,1.69 -0.94,1.5 -0.75,2.81 -0.75,4.5 3,-3.94 4.87,-2.06 6.37,-6 0.56,0.37 0.94,0.56 1.87,0.56 -1.31,-3.37 1.87,-4.12 4.5,-7.12 0.56,-0.56 1.12,-1.69 1.69,-2.06 0.19,0.37 0.37,1.31 0.37,1.69 1.69,0 1.12,0 0.94,-1.31 -0.37,-0.75 -0.37,-1.87 -0.19,-2.81 0.37,-2.06 0.94,-3.37 2.81,-3.37 0,-0.75 0.19,-0.37 -0.56,-0.94l-0.37 -0.19c0.94,-1.12 -0.19,-2.25 0,-3.94 -1.31,0.19 -1.87,0.94 -1.5,2.62z"/>
    <path class="fil1" d="M202.62 167.69l-0.94 0.19c0.37,1.31 0.94,0.56 2.06,1.12 0.75,0.56 0.94,1.12 1.5,1.87 2.81,4.5 1.69,9.93 -0.19,14.62 -0.56,1.5 -2.44,4.87 -3.37,5.62 0.37,0.37 0.94,0.75 1.5,1.12 0.56,-0.75 1.31,-2.44 1.87,-3 0,1.69 -0.19,2.25 0.56,3.56 0.56,0.75 1.31,1.87 2.25,2.25 -0.94,-2.25 0.75,-3.37 0.75,-7.12 0,-0.56 -0.37,-1.12 -0.56,-1.5 0.94,0 1.31,-0.37 1.69,-0.94 -3.19,-0.56 -1.69,-5.43 -1.69,-7.12 0,-1.12 -0.37,-2.44 -0.37,-3.56 0.75,0.19 0.75,0.56 1.5,0.75 0.56,-0.37 0.37,-0.37 0.75,-0.94 -2.44,-0.56 -4.31,-3.94 -4.31,-5.25 0,-1.12 1.31,-1.87 0.19,-1.87 -0.37,0 -0.37,0.19 -0.75,0.37 -0.37,-0.75 -0.19,-0.94 -1.12,-1.69 -0.75,-0.56 -1.5,-0.37 -1.69,-1.31 -1.31,0.75 -0.56,2.25 0.37,2.81z"/>
    <path class="fil1" d="M30.22 51.88c-0.94,0.19 -1.31,0.19 -1.69,0.94 3.75,0.94 0.75,7.5 2.25,10.87 -0.75,-0.37 -0.94,-0.75 -1.87,-0.94 -0.19,0.37 -0.37,0.56 -0.56,0.94 0.94,0.56 1.31,0.56 2.06,1.31 0.75,0.56 1.12,1.12 1.5,1.87 0.37,0.56 0.94,1.5 0.75,2.62 -0.37,0.75 -1.69,1.69 0.56,1.12 0.56,0.94 0.37,0.94 1.31,1.5 0.94,0.56 0.94,0.56 1.69,1.31 0.56,-0.94 0.75,-1.87 -0.75,-3 0.56,0 0.56,0.19 1.12,0.19 -0.19,-0.94 -0.19,-0.75 -1.12,-0.94 -1.5,-0.56 -2.44,-1.87 -3,-3.37 -0.94,-1.87 -1.5,-4.31 -1.12,-7.31 0.56,-3.37 1.87,-6.37 3.56,-9.18 0.56,-0.94 1.12,-1.69 1.69,-2.62 -0.56,-0.37 -0.94,-0.75 -1.5,-1.12 -0.19,0.56 -0.56,1.12 -0.94,1.5l-0.94 1.5c0,-1.69 0.19,-2.44 -0.56,-3.56 -0.56,-0.75 -1.31,-1.87 -2.06,-2.06 0.56,3.56 -2.06,5.25 -0.37,8.43z"/>
    <path class="fil1" d="M155.58 31.08c5.43,2.25 7.5,8.43 4.87,13.3 -0.19,0.37 -0.75,1.31 -0.75,1.5 -0.19,0.37 0.19,1.69 0.37,2.06 2.06,-2.06 2.25,-3.94 3.94,-5.62 2.81,-3.19 5.25,-3.37 8.81,-3.37 1.12,0 2.62,0.94 3.56,1.12l0.94 -0.94c-0.56,-0.56 -1.5,-0.94 -2.25,-1.31 -6.56,-2.25 -10.87,1.87 -11.43,2.06 0,-3.37 -0.56,-5.06 -2.06,-7.12 -0.94,-1.31 -3.37,-3.56 -5.43,-3.94 -0.19,0.94 -0.37,1.31 -0.56,2.25z"/>
    <path class="fil1" d="M190.25 160.19c3.56,3.19 6,2.62 8.06,6.93 2.62,5.25 -0.37,8.62 0,9.37 0.19,0.56 0.56,0.75 0.94,1.12 2.06,-2.62 2.25,-7.5 0.94,-10.87 -0.56,-1.5 -1.12,-1.87 -1.87,-3 6,0 8.99,-2.81 11.24,-7.5 -0.75,-0.19 -1.69,-0.37 -2.25,-0.75 -1.31,1.87 -2.44,5.06 -6.93,6 -2.25,0.37 -3.75,0.19 -5.43,-0.56 -2.44,-0.75 -1.69,-1.69 -4.68,-0.75z"/>
    <path class="fil1" d="M167.76 33.33c-1.5,0.19 -1.5,1.12 -2.25,2.06 -0.19,0.37 0,0.19 -0.37,0.56 -0.37,0.37 0,-0.37 -0.19,0.37 1.69,0.75 1.5,0.19 2.81,-0.75 0,1.12 -0.19,0.75 0.37,0.94 0.56,-0.37 0.37,-0.56 0.56,-1.5 0.56,-1.31 2.06,-2.06 3.56,-2.62 4.87,-2.44 11.99,-0.37 16.3,2.44 0.75,0.56 1.87,1.31 2.62,1.69 0.37,-0.37 0.75,-0.94 0.94,-1.5l-3 -1.87c1.31,0.19 2.44,0.19 3.56,-0.37 0.56,-0.37 0.75,-0.75 1.12,-1.12 0.75,-0.56 0.75,-0.37 1.12,-1.12 -5.06,0.37 -5.43,-2.25 -8.62,-0.19 0,-1.12 -0.19,-1.31 -0.75,-1.87 -0.75,1.87 -2.25,2.25 -4.68,2.06 -2.62,-0.37 -3.94,-0.19 -6.37,0.19 0.37,-0.56 0.94,-0.94 0.94,-1.87l-0.94 -0.19c0,0 -0.19,0.19 -0.19,0.19 -0.94,1.69 -0.94,2.06 -3,3.19 -3.37,1.69 -2.81,-0.37 -3.75,0.19 -0.56,0.19 0,0.56 0.19,1.12z"/>
    <path class="fil1" d="M70.51 202.73c0,-1.12 0.19,-0.75 -0.37,-0.94 -0.75,0.75 -0.19,1.12 -0.94,2.25 -1.12,1.5 -5.06,3 -7.12,3 -3.94,0 -5.62,-0.37 -9.18,-1.87 -3.19,-1.5 -3.56,-2.25 -5.81,-3.37 -0.37,0.56 -0.56,0.75 -0.94,1.31 0.37,0.37 0.75,0.75 1.31,1.12l1.69 0.94c-2.62,0 -3.94,0 -6,2.81 2.25,-0.19 2.44,-0.19 4.5,0.37 3.19,0.94 3,0.19 4.31,-0.19 0,1.12 0.37,0.94 0.75,1.69 0.19,-0.37 0,0 0.19,-0.37 0.19,-0.19 0.19,-0.19 0.37,-0.37 1.12,-2.06 4.87,-1.12 6.75,-1.12 1.31,0 2.25,-0.19 3.56,-0.19 -0.37,0.56 -0.56,0.75 -0.75,1.5 0.37,0.56 0.37,0.19 0.75,0.75l0.56 -0.94c0.56,-1.12 1.12,-1.69 2.06,-2.44 3,-1.69 3,-0.94 4.5,-0.19 0.37,-1.31 -0.19,-0.75 0,-1.31 0,-0.19 0.75,-0.37 0.94,-0.75 0.94,-0.56 0.75,-1.87 1.87,-2.06 -1.12,-1.5 -2.25,-0.19 -3,0.37z"/>
    <path class="fil1" d="M103.86 8.59c-0.75,-0.19 -0.94,-0.56 -1.87,-0.56 0.37,1.5 0.75,1.69 -0.19,3 -0.94,1.5 -3.19,2.62 -5.06,5.06 -0.56,0.56 -0.37,0.75 -0.94,1.12 -0.37,-0.75 -0.19,-0.94 -0.56,-1.69 -0.56,0 -0.75,0 -1.12,0.19 0.56,1.31 0.94,2.81 0.37,4.5 -0.37,1.69 -0.56,2.81 -2.62,2.81 0,0.94 0.19,0.94 0.94,0.94 -0.94,2.06 0,1.87 0,4.12 1.5,0 1.69,-0.75 1.69,-2.25 0.56,0.37 0.37,0.56 0.75,0.37 0.75,-0.37 -0.75,-1.12 -0.75,-3.19 0,-1.5 1.31,-4.31 2.06,-5.43 2.25,-3 5.43,-4.68 8.81,-6.18 1.12,-0.37 4.87,-1.5 6.18,-1.5 0,-1.31 0.37,-1.87 -1.12,-1.69 -0.75,0.19 -1.5,0.56 -2.44,0.56 2.06,-1.87 2.25,-2.44 2.25,-6 -1.87,1.69 0.37,0.37 -3.37,2.62 -2.06,1.31 -2.25,1.31 -3,3.19z"/>
    <path class="fil1" d="M72.57 62.19c0,1.69 0.19,1.69 1.5,2.25 1.12,0.37 1.87,0.37 3.19,0.56 8.99,1.12 21.74,-4.12 28.48,-9.18 2.25,-1.69 6.18,-5.25 6.93,-8.43 0,-0.56 -0.56,-1.12 -0.94,-1.5 -0.94,3.94 -2.81,6.18 -6.18,8.43 -3,2.06 -6.75,3.56 -10.12,4.87 -5.62,2.25 -13.87,6.56 -20.43,4.31 -1.12,-0.37 -1.69,-1.12 -2.44,-1.31z"/>
    <path class="fil1" d="M126.54 192.61c0.37,-1.12 0.37,-1.69 0.75,-2.81 0.56,-0.94 0.94,-1.5 1.5,-2.25 3.19,-4.12 9.18,-6.56 14.05,-8.43 5.25,-2.25 14.43,-6.56 20.61,-4.12 1.31,0.56 1.69,1.12 2.44,1.31 -0.37,-0.94 0.75,-2.62 -4.87,-3 -11.06,-0.94 -28.11,6.37 -33.54,14.05 -2.81,4.12 -1.69,3.94 -0.94,5.25z"/>
    <path class="fil1" d="M176.2 165.81c-1.5,-2.62 -2.06,-3.37 -2.06,-7.12 0,-4.87 4.12,-14.05 6.18,-18.93 2.06,-4.87 6.18,-12.93 12.18,-13.12 -0.19,-0.19 -0.75,-0.75 -0.94,-0.94 -0.56,-0.19 -0.75,0 -1.5,0.19 -1.5,0.56 -3.37,2.06 -4.68,3.19 -6.93,6.93 -14.8,25.11 -11.62,35.04 0.56,1.5 0.56,1.69 2.44,1.69z"/>
    <path class="fil1" d="M72.38 176.31c1.31,-0.37 3,-3.37 11.99,-1.31 4.31,0.94 17.8,6.56 20.99,8.99 0.37,0.19 0.75,0.37 1.12,0.75l3 2.62c1.69,2.44 1.5,3.19 2.25,5.25 0.75,-1.12 1.87,-1.31 -0.94,-5.06 -3,-4.31 -9.18,-8.06 -13.87,-10.12 -3.56,-1.5 -7.87,-3.19 -12.18,-3.75 -2.44,-0.37 -4.5,-0.56 -7.31,-0.37 -5.81,0.37 -4.68,2.06 -5.06,3z"/>
    <path class="fil1" d="M60.76 199.17c2.62,2.44 8.81,2.62 12.55,0.19 0.56,-0.37 0.75,-0.75 1.31,-0.94 0,3.37 0.56,4.87 2.06,7.12 0.94,1.31 3.37,3.75 5.43,3.94 0.19,-0.94 0.56,-1.31 0.56,-2.25 -2.81,-0.56 -6,-4.68 -6,-8.25 0,-2.06 0.19,-3.19 1.12,-4.87 0.19,-0.37 0.75,-1.31 0.75,-1.69 0.19,-0.37 -0.19,-0.94 -0.19,-1.87 -2.06,0.56 -2.25,5.25 -6.75,7.68 -1.31,0.75 -3.37,1.5 -5.62,1.12 -1.12,0 -2.06,-0.19 -3,-0.56 -1.69,-0.75 -1.12,-0.37 -2.25,0.37z"/>
    <path class="fil1" d="M157.46 65.19c2.44,0 3.75,0 6.18,-0.56 0.37,-0.19 1.31,-0.56 1.5,-0.75 0.56,-0.37 0.56,-0.75 0.56,-1.69 -2.44,0.75 -1.31,1.87 -7.68,1.87 -4.12,0 -10.49,-2.81 -14.24,-4.31 -1.5,-0.75 -3,-1.31 -4.31,-1.87 -3.19,-1.5 -5.25,-2.44 -7.87,-4.5 -1.87,-1.12 -3.37,-3 -4.31,-5.06 -0.56,-0.94 -0.37,-1.31 -0.75,-2.44 -0.19,0.19 -0.56,0.56 -0.75,0.75 -0.94,1.69 3,6.18 4.12,6.93 3,2.44 4.12,3.37 7.68,5.43 4.87,2.81 14.05,6.18 19.86,6.18z"/>
    <path class="fil1" d="M207.12 82.61c2.06,4.87 -0.19,10.31 -4.68,12.55 -2.25,0.94 -3.19,0.19 -3.94,2.62 3.56,0 8.25,-3.56 13.68,0.94 1.5,1.12 2.81,3 3.19,5.06l1.69 0c-0.56,-1.12 -0.56,-1.87 -1.5,-3.37 -2.06,-3.75 -4.68,-5.06 -8.99,-5.62 0.75,-0.94 1.31,-1.31 2.06,-2.44 1.31,-2.06 1.87,-4.68 1.69,-7.31 -0.19,-1.31 -0.56,-2.44 -0.94,-3.56 -0.75,0.19 -1.69,0.75 -2.25,1.12z"/>
    <path class="fil1" d="M134.6 215.47l-0.19 1.69c2.25,-0.75 4.31,-1.5 6.18,-3.56 1.87,-2.25 2.44,-3.37 3,-6.93 2.62,2.81 5.43,3.75 9.18,3.75 1.5,0 2.81,-0.75 3.94,-0.94 0,-0.94 -0.75,-1.5 -0.94,-2.25 -3.37,1.69 -7.5,0.75 -9.74,-1.31 -1.31,-0.94 -2.06,-1.87 -2.81,-3.56 -1.12,-2.06 -0.37,-2.44 -1.5,-3.19 -0.37,-0.19 -0.75,-0.37 -1.12,-0.56 0,3.56 2.25,6.37 0.56,10.87 -0.94,2.62 -3.56,5.43 -6.56,6z"/>
    <path class="fil1" d="M191.19 112.78c0.56,-0.37 0.94,-0.56 1.31,-1.12 -5.81,0 -10.31,-8.43 -12.18,-12.93l-3.75 -8.81c-1.69,-4.5 -3.75,-11.43 -1.12,-16.12 0.37,-0.75 0.56,-0.56 0.75,-1.31 -1.5,0.19 -1.87,0.37 -2.25,1.5 -4.12,11.43 7.31,36.54 17.24,38.79z"/>
    <path class="fil1" d="M39.96 74.56c-3.94,0.56 -4.5,0.37 -7.12,2.25 -2.06,1.31 -3,3 -4.12,5.25 0.37,0.19 1.69,0.56 2.25,0.75 0.37,-0.75 0.56,-1.31 1.12,-1.87 2.25,-3.56 7.31,-5.25 11.24,-3.56 2.44,0.94 1.5,1.69 4.68,0.94 -0.56,-0.37 -0.75,-0.94 -4.12,-2.81 -2.81,-1.5 -4.87,-4.87 -5.06,-8.25 -0.19,-2.25 0.75,-3.75 1.31,-5.43 -0.37,-0.37 -0.56,-0.75 -1.12,-0.94 -2.62,4.87 -2.44,9.18 0.94,13.68z"/>
    <path class="fil1" d="M31.34 143.7c0,0.19 0.19,0 -0.19,0.56 -0.19,0.19 -0.37,0.37 -0.56,0.56 -3.37,3.94 -3,10.31 -1.5,11.99 0.75,-0.37 1.31,-0.75 2.06,-0.94 -2.25,-4.31 0,-10.49 4.68,-12.74 1.69,-0.56 3.75,-0.37 3.94,-2.62 -1.12,0.19 -1.69,0.19 -2.81,0.37 -2.44,0.75 -4.68,1.69 -8.06,0.37 -4.12,-1.69 -4.87,-3.94 -6.18,-6.75l-1.5 0c0.37,1.12 0.75,2.25 1.31,3.37 1.12,1.87 3,3.75 5.06,4.68 1.87,0.94 3,0.75 3.75,1.12z"/>
    <path class="fil1" d="M94.68 31.64c-0.56,-0.37 -0.56,-0.56 -1.12,-1.12 -0.37,-0.19 -0.94,-0.56 -1.31,-0.94 -0.75,-0.37 -2.25,-1.12 -3.19,-1.31 -3,-0.75 -5.25,-0.19 -7.5,0.75 0.19,0.75 0.56,1.31 0.94,2.06 2.62,-0.56 1.12,-0.75 4.68,-0.75 3.56,0 7.31,3.19 8.43,6.56 0.75,2.44 0,1.69 2.06,3 0,-3.56 -3.94,-10.31 2.62,-15.37 3.19,-2.44 3.56,-0.56 3.56,-3.19 -2.44,0.19 -4.87,2.25 -6.18,3.56 -1.31,1.12 -3,4.31 -3,6.75z"/>
    <path class="fil1" d="M45.77 126.65c7.5,0.19 11.81,12.18 14.05,17.43 2.25,5.62 5.81,12.93 3.75,18.93 -0.75,2.25 -0.94,1.69 -1.5,2.81 1.5,-0.19 1.69,-0.19 2.25,-1.69 0.37,-0.75 0.75,-2.06 0.75,-3.19 0.19,-2.62 0,-4.87 -0.37,-7.31 -1.31,-8.43 -7.87,-23.99 -16.3,-27.73 -0.94,-0.37 -1.69,-0.56 -2.62,0.75z"/>
    <path class="fil1" d="M45.77 111.66c0.19,0.37 0.94,0.75 1.31,1.12 8.43,-1.87 15.93,-18.36 17.43,-27.36 0.56,-3.19 0.94,-6.75 0.19,-9.93 -0.37,-1.87 -0.75,-2.06 -0.94,-2.81l-1.69 -0.19c0.37,0.75 0.56,0.75 1.31,2.25 1.31,3.19 0.75,6.56 0,9.74 -1.12,4.68 -2.62,6.93 -4.12,10.87 -1.87,5.43 -6.75,16.3 -13.49,16.3z"/>
    <path class="fil1" d="M195.12 39.51c0.19,0.94 2.25,2.25 3.37,3.75 3.19,3.75 5.25,6.37 6.93,11.24 0.37,0.94 0.19,1.5 2.06,1.69 0,-2.44 0,-2.62 1.69,-3.75l0.19 -0.19c-0.56,-0.56 -0.75,-0.75 -1.69,-0.75 2.06,-3.37 -1.12,-4.68 -0.19,-8.62 -0.94,0.37 -1.69,1.31 -2.06,2.06 -0.94,1.31 -0.75,1.69 -0.75,3.56 -0.75,-0.94 -1.87,-3 -3.75,-5.43 -0.94,-1.12 -3.75,-4.12 -4.68,-4.68 -0.56,0.37 -0.75,0.56 -1.12,1.12z"/>
    <path class="fil1" d="M101.24 226.15c1.12,1.69 2.06,1.31 1.31,4.31 0.94,-0.19 1.31,-0.37 1.87,-0.75 0.19,1.69 1.69,2.62 2.81,3.19 0.56,0.37 1.31,0.75 1.87,1.12 0.37,0.19 0.56,0.37 0.75,0.75 0.56,0.56 0.37,0.56 0.75,0.56 0.19,-1.31 0.37,-2.62 -0.37,-3.94 -0.37,-0.75 -1.12,-1.12 -1.5,-1.69 5.62,0.94 6.75,1.69 12.74,1.12 0.37,-0.75 0.19,-0.94 0.19,-1.87 -4.68,0.37 -8.25,0 -12.55,-1.12 -6.37,-1.69 -5.25,-3 -7.87,-1.69z"/>
    <path class="fil1" d="M28.91 185.86c0.19,0.56 0.19,0.56 0.56,0.75 0.37,0.19 0.75,0.19 1.12,0.19 -1.31,2.44 -0.19,3.75 0.19,6.37 0.37,0.94 0,1.69 0,2.44 0.75,-0.75 1.5,-1.31 2.06,-2.25 0.94,-1.31 0.75,-1.69 0.75,-3.56l3.75 5.43c0.75,0.94 3.56,3.94 4.68,4.68 0.56,-0.37 0.94,-0.75 1.12,-1.31 -0.37,-0.37 -0.37,-0.37 -0.75,-0.94 -4.31,-4.12 -7.5,-8.06 -9.56,-13.87 -0.37,-0.94 -0.37,-1.5 -2.06,-1.69 0,0.94 0.19,3.37 -1.87,3.75z"/>
    <path class="fil1" d="M229.04 119.34c0,3.19 -0.56,7.5 -1.31,9.93 -0.37,1.5 -0.75,2.81 -1.31,4.12 -0.75,1.5 -1.69,2.25 -0.37,3.75 2.06,-2.06 2.44,-1.69 4.31,-1.31 -0.19,-1.12 -0.19,-1.12 -0.75,-1.87 1.69,-0.37 2.44,-1.5 3.19,-3 0.56,-0.56 0.75,-1.31 1.12,-1.87 0.75,-0.94 1.12,-0.75 1.69,-1.5 -3.37,0 -4.68,0 -6.18,2.44 0,-0.75 2.25,-8.06 1.31,-13.49 -2.81,0 -1.69,0.19 -1.69,2.81z"/>
    <path class="fil1" d="M111.36 195.42c1.12,-0.19 1.31,-0.56 1.87,-1.12 5.06,-7.5 13.49,-2.81 13.49,6 0,3.75 -3,5.25 -3,7.87 0,2.81 0.19,4.31 2.44,6.56 0.56,0.75 1.31,1.31 2.06,1.69 0.56,0.19 2.06,0.94 2.62,0.75l0.19 -1.31c-0.75,-0.37 -1.31,-0.37 -2.25,-0.75 -1.31,-0.56 -2.25,-1.5 -3,-2.81 -3.94,-6.37 4.5,-12.37 7.12,-6.93 0.94,1.69 0.56,2.44 -0.37,3.75 -0.56,-0.19 -1.5,-0.75 -1.5,0.37 0,1.31 2.81,-0.19 2.81,-2.62 0,-2.06 -1.87,-4.31 -4.68,-4.31 -0.56,0 -1.5,0.37 -2.06,0.56 2.06,-5.43 -1.31,-12.55 -6.18,-13.87 -3.94,-1.12 -7.5,1.69 -8.99,4.68 -0.19,0.56 -0.37,1.12 -0.56,1.5z"/>
    <path class="fil1" d="M9.61 102.85c-1.5,0 -0.56,-0.19 -1.69,-0.19 0.37,0.94 0.37,0.94 0.75,1.69 -1.69,0.94 -1.5,0.19 -3.19,3 -0.56,0.75 -1.12,2.06 -1.87,2.62l-0.94 0.75c1.5,0 2.06,0.37 3.75,-0.19 1.69,-0.75 1.69,-1.5 2.44,-2.06 -1.12,4.87 -1.87,8.06 -1.31,13.3 2.62,0 1.69,0 1.69,-2.81 0,-4.5 0.94,-10.12 2.62,-13.87 0.94,-2.25 1.5,-2.25 0.37,-3.75 -0.75,0.37 -1.5,1.5 -2.62,1.5z"/>
    <path class="fil1" d="M166.45 173.12c0,1.87 0.19,3.75 1.12,5.43 0.94,-1.87 0.19,-1.5 0.19,-5.06 0,-3 3,-5.81 6.75,-5.81 3.56,0.19 6.56,2.25 8.06,4.68 2.25,3.37 0.56,5.43 4.5,8.25 3.19,2.06 8.25,1.5 9.56,-0.56 -0.37,-0.56 -0.37,-0.19 -0.56,-0.94 -1.5,0.37 -1.69,1.5 -5.06,1.5 -2.81,0 -6.18,-2.62 -6.18,-5.43l0 -1.31c0,-4.5 6.93,-5.25 7.31,-0.56 -0.75,0.37 -1.31,0.37 -0.75,1.5 0.56,0 0.56,0 0.75,-0.37l0.37 -1.31c0,-4.31 -7.31,-4.87 -8.25,-0.37 -0.56,-0.37 -2.62,-5.25 -8.99,-6.18 -2.62,-0.37 -4.87,0.37 -6.18,1.5 -1.12,0.75 -2.62,3.19 -2.62,5.06z"/>
    <path class="fil1" d="M127.66 2.97c-0.56,3.37 0.19,4.12 2.25,5.81l-6.37 -1.12c-2.44,-0.37 -4.5,-0.19 -6.93,-0.19l0 1.87c6.37,0 12.56,0.19 18.18,3.19 1.5,0.75 0.94,0 2.25,-0.19 -1.12,-2.06 -2.06,-1.31 -1.31,-4.31 -1.12,0 -1.12,0.19 -1.87,0.56 -0.19,-2.25 -3.19,-3.19 -4.68,-4.31 -1.12,-0.75 -0.94,-0.94 -1.31,-1.31 -0.37,-0.19 0.19,-0.19 -0.19,0z"/>
    <path class="fil1" d="M51.58 30.52c-1.12,-0.19 -0.56,-0.56 -2.44,-0.56 -2.25,0 -3.75,1.5 -6.37,0.75 0.94,1.31 2.62,3 4.68,3 0.56,0 0.56,-0.19 1.31,-0.19 -0.94,0.75 -5.25,2.81 -9.18,7.31 -0.56,0.37 -0.94,0.56 -1.12,1.31 0.37,0.56 0.56,0.75 1.31,1.12 1.87,-2.81 8.25,-7.68 12.18,-9.37 5.25,-2.44 3,-0.37 4.31,-3 -2.44,-0.56 -2.81,0.19 -3.94,-2.06 -0.56,0.37 -0.75,0.75 -0.75,1.69z"/>
    <path class="fil1" d="M182.19 207.41l0.56 0.19c0.56,0 1.12,0 1.87,0.37 0.94,0.37 0.94,1.12 1.5,1.5 0.37,-0.56 0.56,-0.75 0.56,-1.69 1.31,0.56 1.87,0.75 3.56,0.37 1.87,-0.37 3.19,-1.12 5.06,-0.56 -0.19,-0.75 -1.5,-1.87 -2.06,-2.25 -1.31,-0.75 -1.87,-0.56 -3.56,-0.56l0.56 -0.56c3.19,-1.69 7.87,-5.43 9.56,-7.87 -0.37,-0.75 -0.75,-0.94 -1.31,-1.31 -2.06,3 -8.62,7.87 -12.18,9.56 -1.87,0.75 -3.37,0.94 -3.75,1.69 -0.19,0.19 -0.37,0.94 -0.37,1.12z"/>
    <path class="fil1" d="M59.83 167.5l0.19 0.19c2.06,1.31 3.37,-0.94 6.93,0.75 6.56,2.81 3.56,13.3 -3,15.37 -2.06,0.56 -3.19,0.19 -5.25,2.06 -1.69,1.69 -2.25,3.94 -2.25,6.37 0,1.31 0.94,3.75 1.69,4.5 0.37,-0.19 0.75,-0.56 1.12,-0.75 -3.94,-6 0.75,-11.99 5.62,-11.06 1.87,0.37 3.19,1.5 3.37,3.56 0,0.94 -0.37,2.06 -0.75,2.62 -0.75,0.75 -1.12,0.94 -2.62,0.94 -0.19,-0.75 0,-0.56 -0.56,-0.94 -0.75,0.19 -0.37,0.19 -0.94,0.75 0.75,0.75 2.06,0.94 3.19,0.37 0.94,-0.37 1.69,-1.5 2.06,-2.44 0.75,-3.56 -1.31,-4.68 -3.19,-5.62 0.94,-0.75 3.75,-1.5 5.62,-6.37 1.5,-3.75 0.94,-8.62 -3,-10.49 -3.56,-1.69 -6,-0.37 -8.25,0.19z"/>
    <path class="fil1" d="M41.46 58.25c0.56,0.37 0.56,0.56 0.94,0.94 2.06,-1.12 3.56,-2.06 6.37,-1.12 2.06,0.56 3.75,1.87 4.5,3.94 2.06,6.93 -7.12,8.06 -7.12,3 0.75,-0.37 1.5,-0.37 0.75,-1.5 -1.69,0 -1.69,3.94 1.5,5.06 3,0.75 5.06,-0.94 5.62,-3 0.56,0.37 0.56,0.75 0.94,1.31 0.19,0.37 0.75,0.75 0.94,1.31 0.75,0.56 1.87,1.5 2.62,2.06 6.18,3.75 14.05,0.75 13.3,-6.56 -0.19,-1.5 -0.75,-2.44 -0.94,-3.75 -1.87,1.12 2.06,6.93 -3.56,9.93 -4.68,2.25 -11.81,-0.94 -12.93,-6.93 -1.5,-7.31 -9.18,-7.68 -12.93,-4.68z"/>
    <path class="fil1" d="M47.84 118.4c0,2.62 -0.56,4.5 -3,6.37 -3,2.25 -7.87,3 -11.06,0.56 -2.44,-1.69 -4.5,-2.25 -7.5,-0.94 -1.87,0.75 -3.37,1.87 -4.12,3.75 -0.56,1.12 -0.56,1.69 -1.12,2.81l1.5 0.19c0.19,-1.87 1.31,-3.37 2.25,-4.31 5.62,-5.62 13.12,1.69 9.37,5.43 -2.06,1.87 -4.5,1.12 -4.68,0.19 -0.19,-0.37 0.56,-1.12 -0.37,-1.5 -1.31,-0.19 -0.75,1.87 1.12,2.62 2.62,1.12 5.62,-1.31 5.62,-4.12 0,-0.94 -0.37,-1.5 -0.56,-2.25 2.06,0.37 0.94,0.56 3.94,0.56 4.31,0 10.12,-3.94 10.12,-8.06 0,-1.69 0,-2.06 -0.75,-3.75 -0.37,-0.75 -0.94,-1.12 -1.5,-1.87 -0.75,-0.94 -2.81,-2.44 -4.12,-2.62 0.37,0.94 0.19,1.12 1.12,1.69 1.5,1.12 3.75,3 3.75,5.25z"/>
    <path class="fil1" d="M107.24 22.27c0.37,0.94 0.94,0 3,1.31 6.75,4.68 1.69,13.49 -3.19,11.24 -1.87,-0.94 -3.19,-3.56 -1.31,-5.62 0.56,0.19 1.31,0.75 1.5,-0.19 0.19,-1.69 -3.56,0.19 -2.62,3.37 0.75,2.81 3.37,4.12 6.56,2.81 -1.12,4.12 -0.56,7.5 1.87,10.87 2.25,3 6.56,4.5 9.74,2.06 1.5,-0.94 3.56,-3.37 4.12,-5.25 -1.87,0.94 -1.12,0.19 -2.06,1.5 -0.37,0.75 -1.12,1.5 -1.69,1.87 -1.31,1.12 -2.81,1.87 -5.25,1.5 -4.5,-0.94 -8.62,-8.06 -5.06,-13.87 1.12,-1.69 1.87,-2.62 1.69,-5.62 -0.37,-3.94 -4.5,-7.31 -7.31,-7.12l0 1.12z"/>
    <path class="fil1" d="M202.99 111.1c-2.62,-0.19 -4.68,-1.31 -9.18,0.94 -2.25,1.31 -4.87,3.94 -4.87,6.56 0,2.62 0.37,3.56 2.25,5.62 0.75,0.94 3,2.44 4.12,2.62 -1.12,-2.62 -1.31,-1.31 -3,-3 -1.87,-2.44 -2.62,-4.87 -0.94,-7.68 0.37,-0.94 0.94,-1.31 1.5,-2.06 2.44,-2.44 7.31,-3.19 10.68,-1.69 2.62,1.31 2.25,2.25 5.81,2.25 2.81,0 5.62,-2.06 6.75,-4.5 0.75,-1.12 0.56,-1.31 1.12,-2.81 -2.06,0 -1.12,-0.37 -2.06,2.06 -0.94,2.06 -3.56,4.12 -5.62,4.12 -1.87,0 -3.37,0 -4.87,-1.5 -3.19,-3.19 -0.75,-7.12 2.25,-7.12 1.12,0 1.5,0.56 2.06,0.94 -0.19,0.56 -0.56,1.31 0.19,1.5 1.12,0.19 0.56,-0.94 0.37,-1.5 -1.5,-2.06 -5.06,-1.69 -6.56,1.12 -1.12,1.87 -0.19,3 0,4.12z"/>
    <path class="fil1" d="M179.01 42.32c1.12,1.87 1.5,2.44 1.5,4.87 0,6.75 -9.37,8.81 -10.49,3 -0.19,-1.12 0.37,-2.06 0.75,-2.81 0.75,-0.94 1.12,-1.12 2.62,-1.12 0.19,0.94 0.75,1.5 1.31,0.37 0,-0.19 0,-0.56 -1.31,-0.75 -0.56,-0.19 -1.12,0 -1.69,0.19 -2.25,0.94 -2.62,4.31 -1.5,6.18 0.75,1.12 1.31,1.31 2.62,1.87 -0.94,0.75 -2.25,0.75 -4.31,3.75 -2.81,4.31 -3.19,10.87 1.69,13.12 2.81,1.31 5.43,0.75 8.25,-0.19 -2.06,-1.5 -3.19,0.75 -6.75,-0.56 -2.06,-0.94 -3.94,-3 -3.94,-5.43 0,-2.81 0,-4.31 2.25,-7.12 2.62,-3.56 5.43,-3 7.31,-3.94 4.87,-2.06 5.81,-8.81 2.81,-12.18l-1.12 0.75z"/>
    <path class="fil1" d="M122.6 224.09c-0.37,-0.37 -0.56,-0.75 -1.12,-0.94 -0.56,0.37 -0.94,0.56 -1.31,1.12 0.56,0.75 0.75,0.75 1.87,2.25 3.75,6 -3,10.31 -6,6.37 -0.37,-0.75 -0.19,-0.94 -1.12,-1.12 -0.56,0 -1.69,-0.19 -2.06,-0.19 1.5,7.5 15.74,4.87 12.18,-3.94 -0.37,-0.94 -1.31,-1.87 -0.94,-3 0.75,-3 5.06,-2.25 4.31,-0.37 -0.19,0.56 -1.12,1.31 -1.69,0.37 0,0 0,0 0,-0.19l-0.19 -0.19c-0.75,2.62 3.94,1.5 2.81,-0.94 -0.94,-2.44 -5.06,-2.25 -6.75,0.75z"/>
    <path class="fil1" d="M12.61 111.28c0.56,0.37 0.75,0.75 1.31,0.37 -1.31,-0.37 -0.75,-1.69 0.37,-1.87 2.06,0 2.44,4.5 -1.5,4.5 -0.75,0 -0.94,-0.56 -2.06,-0.75l-0.19 2.25c3.94,0.56 6.37,8.81 12.18,10.12 0.37,-0.19 0.56,-0.37 0.94,-0.75 0.75,-0.94 -0.75,-0.56 0.37,-0.75 2.06,0 2.62,-1.12 3.19,-2.44 -3.19,0.94 -1.5,-0.75 -5.06,0.37 0.19,-0.56 0.19,-0.75 0.19,-1.5 -1.5,0.37 -1.87,2.81 -5.25,-2.06 -1.12,-1.5 -2.44,-2.62 -2.81,-3.19 3.56,-1.69 3,-6.75 -0.19,-6.75 -1.31,0 -1.5,1.31 -1.5,2.44z"/>
    <path class="fil1" d="M41.46 49.45c0,2.81 -3.37,3.56 -3.37,1.31 0,-0.75 0.75,-1.12 1.5,-0.56 -0.19,-0.37 -0.19,-0.75 -0.75,-0.75 -2.25,0 -2.44,4.12 1.31,3.37 2.62,-0.75 2.44,-3.94 2.44,-5.43 1.69,0.19 1.69,0 1.69,-1.87 -2.06,0 -3.75,-0.19 -5.06,-1.12 -4.31,-2.62 -2.62,-6.93 0.37,-7.68 2.81,-0.56 0.94,1.5 4.5,-1.5 -2.25,-1.31 -4.31,-0.94 -6.18,0.37 -1.5,0.94 -3,2.62 -3.37,4.87 -0.75,3.75 2.25,5.62 5.25,6.56 0.94,0.37 1.69,0.94 1.69,2.44z"/>
    <path class="fil1" d="M40.53 201.79c-2.44,0 -3.94,-1.87 -3.94,-3.94 0,-0.37 0.94,-1.87 -1.5,-3.56 -0.56,1.87 -1.31,3.56 0.37,6.18 1.12,1.5 2.81,3 4.87,3.37 2.44,0.56 4.31,-0.94 5.43,-2.25 1.87,-2.62 0.56,-4.68 4.12,-4.68 2.25,0 2.81,3.37 1.12,3.37 -0.94,0 -1.12,-0.37 -1.12,-1.31 0,0 -0.94,0 -0.37,1.31 0.56,0.94 3.37,1.69 3.37,-1.5 0,-1.12 -0.94,-2.06 -1.69,-2.62 -1.5,-0.75 -2.06,-0.37 -3.75,-0.37l0 -1.5 -1.87 -0.19c0,2.06 -0.37,3.75 -1.12,5.25 -0.56,1.12 -2.25,2.44 -3.94,2.44z"/>
    <path class="fil1" d="M122.42 216.22l-1.69 -0.19c0.56,0.94 2.44,2.06 -0.94,4.5 -0.75,0.56 -1.5,0.94 -2.06,1.69 -0.37,0.19 -0.75,0.56 -1.12,0.75 -0.37,0.56 -0.19,0.56 -0.94,0.94l-0.56 -0.56c-3.19,-3.94 -8.06,-0.19 -5.81,2.06 0.56,0.19 1.12,0.56 1.87,0.37 0.75,-0.37 0.75,-0.94 0.56,-1.5 -0.19,0.37 -0.19,0.94 -0.94,0.94 -0.37,0 -0.94,-0.56 -1.12,-0.94 -0.37,-2.06 3.75,-2.44 4.5,0.37 0.37,1.31 -0.56,2.06 -0.75,3l2.25 0.19c0.19,-1.12 1.5,-2.44 2.25,-3.19 0.94,-1.12 1.87,-1.69 3.19,-2.62 1.31,-0.94 4.5,-4.31 4.68,-6.37 -0.37,-0.56 -0.75,-0.56 -0.94,-1.31l-0.19 0.19c-0.37,0.19 -0.37,0.56 -0.37,0 0,-2.44 -0.94,-2.62 -2.44,-3.37 0.37,1.31 0.56,0.94 0.19,2.62 -0.19,0.94 -0.19,1.69 0.37,2.44z"/>
    <path class="fil1" d="M195.68 190.92c-1.69,0 -1.69,0 -1.69,1.87 2.25,0 3.75,0.19 5.25,1.12 4.12,2.62 2.62,7.87 -1.5,7.87 -0.75,0 -1.5,-0.94 -3.37,1.31l0.19 0.19c5.25,3.94 15.55,-8.43 4.12,-11.99 -1.12,-0.37 -1.87,-0.94 -1.87,-2.44 0,-2.81 3.37,-3.37 3.37,-1.31 0,0.56 -0.56,0.75 -0.75,0.94l-0.56 0.19c2.44,0.94 3.56,-3.19 0,-3.19 -1.31,0 -2.25,0.94 -2.81,1.69 -0.56,1.5 -0.37,2.25 -0.37,3.75z"/>
    <path class="fil1" d="M182.57 46.07c0,1.69 -0.19,1.12 0.19,1.87 0,0.37 0,0.19 -0.56,0.75 -0.75,1.12 -0.37,2.44 0,3.37l0.75 -1.12c0.19,-0.19 0.56,-0.37 0.94,-0.56 1.12,-0.94 0.94,-0.75 1.5,-1.87 0.37,0.37 0.56,0.75 1.12,0.94 0,-4.31 3.94,-1.87 9.18,-2.06 0,1.12 -0.56,4.5 2.44,5.43 3.56,1.12 3.75,-3.37 1.31,-3.37 -0.56,0 -0.56,0.37 -0.75,0.75 0.37,-0.37 0.37,-0.37 0.94,-0.37 0.37,0.56 0.75,0.56 0.37,1.5 -0.75,1.69 -3.19,0.37 -3.19,-1.87 0,-2.06 1.5,-2.25 3,-2.81 -0.37,-0.56 -0.75,-1.12 -1.31,-1.69 -1.87,0.19 -1.12,0.56 -4.5,0.56 -2.44,0 -5.06,-1.31 -9.18,-0.19 -0.94,0.19 -1.5,0.56 -2.25,0.75z"/>
    <path class="fil1" d="M111.73 15.72c-3.75,0 -1.31,-4.12 0,-1.87 0,0 0,0.19 0,0.19 0.56,-1.31 -1.12,-1.87 -2.25,-1.12 -2.25,1.87 1.31,5.62 5.06,2.81 0.56,-0.56 0.56,-0.94 1.12,-1.31l0.94 0.94c0.56,-0.37 0.94,-0.75 1.5,-1.12 -0.19,-0.75 -4.5,-4.31 -2.44,-8.25 1.31,-2.25 4.12,-2.62 5.81,-1.12 2.06,1.5 -0.37,1.31 3.94,1.87 -2.06,-7.68 -15.74,-4.68 -11.99,3.94 0.37,1.12 1.12,1.69 0.75,3.19 -0.37,0.94 -1.12,1.87 -2.44,1.87z"/>
    <path class="fil1" d="M221.54 111.47c0,2.81 1.5,3.19 2.44,4.31l-0.94 0.94c0.37,0.56 0.56,1.12 1.12,1.5 7.68,-7.68 12.93,1.12 8.62,4.12 -1.69,0.94 -0.56,0.37 -1.31,3 1.5,0 2.62,-1.12 3.37,-2.06 1.87,-3 1.69,-10.49 -4.87,-10.49 -2.25,0 -3.19,1.5 -5.06,1.5 -1.87,0 -3.19,-2.62 -1.87,-3.94 0.75,-0.94 1.87,-0.37 2.06,0.37 0,0.75 -0.19,0.75 -0.75,0.94 1.5,0.94 2.44,-2.81 -0.75,-2.81 -0.94,0 -2.06,1.5 -2.06,2.62z"/>
    <path class="fil1" d="M49.9 39.51l0 -0.19c0,0 0,-0.19 0,-0.19 0.19,-1.31 0.94,-1.31 2.06,-0.56 0,1.5 -0.19,3.19 -3,2.81 -1.5,-0.19 -1.87,-1.5 -2.25,-2.81 -0.75,0.19 -1.12,0.75 -1.87,1.12 0.37,2.25 0.75,1.69 0.75,4.5 0,4.5 -2.06,3.56 0.56,11.62 2.44,-0.19 1.69,0.19 1.87,-0.37 2.44,1.69 1.5,1.12 4.12,0.75 -0.75,-0.75 -0.75,0 -1.69,-1.69 -0.75,-0.75 -0.94,-1.31 -1.87,-1.5 0.19,-0.56 0.56,-0.56 0.94,-1.12 -0.56,-0.37 -1.31,0 -1.87,-0.56 -1.31,-0.94 -0.56,-4.31 -0.37,-5.81 0.19,-0.94 0.19,-1.87 0.19,-3 1.69,0.19 3.75,0.56 5.06,-1.69 0.56,-0.94 0.94,-3.56 -1.5,-3.56 -1.31,0 -2.25,1.5 -1.12,2.25z"/>
    <path class="fil1" d="M186.32 39.51l0 -0.94c0.37,-0.37 0.94,-0.75 1.5,-0.37 0.56,0.19 0.56,0.56 0.56,0.94 0,0.56 -0.19,0 0,0.37 0.94,-0.75 0.37,-2.25 -1.31,-2.25 -2.81,0 -2.44,6.18 3.75,5.25l0 1.5 1.87 0.19c0,-10.12 8.99,-8.81 8.99,-3.75 0,1.12 -0.56,1.31 0,2.06 0.56,0.56 0.94,0.94 1.31,1.5 0.19,-0.19 0,0 0.19,-0.37 0.19,0 0.19,-0.37 0.37,-0.37 0,-0.19 0.19,-0.56 0.19,-0.75 0.19,-0.75 0.19,-1.12 0,-1.87 -0.94,-6.18 -9.74,-9.37 -12.37,-1.69 -0.37,1.31 -0.56,2.44 -2.25,2.44 -1.5,0.19 -2.81,-0.56 -2.81,-1.87z"/>
    <path class="fil1" d="M7.36 125.53c4.31,0 3.75,-1.5 6,-1.5 2.62,0 3.19,4.5 1.12,4.5l-0.75 0c-0.75,-1.12 -0.56,-1.31 0.19,-2.06 -2.62,0 -1.12,3.75 1.12,3 1.87,-0.94 2.81,-4.5 -0.75,-6.75l0.94 -1.12 -1.12 -1.5c-0.56,0.94 -3.37,3 -5.06,3l-1.31 0c-3.56,0 -5.25,-5.06 -2.25,-6.93 1.69,-1.12 0.75,-1.31 1.31,-3.19 -4.5,0.37 -5.62,7.68 -3,10.68 0.75,0.94 2.06,1.87 3.56,1.87z"/>
    <path class="fil1" d="M214.24 113.53c0.37,0.37 0.19,0.19 0.75,0.37l-0.19 0c0,0 -0.19,0 -0.19,0l-0.94 0c-1.31,0.19 -2.06,1.31 -2.62,2.62 1.87,-0.94 1.31,0.19 4.87,-0.37l0 1.31c1.31,-0.37 2.25,-2.62 5.25,1.87 0.94,1.5 2.06,2.25 2.81,3.37 -4.5,2.81 -1.87,7.31 0.19,6.75 1.69,-0.19 2.25,-3 0.19,-3 0.37,0.37 0.75,0.56 0.75,1.31 -0.37,1.12 -2.62,1.31 -2.62,-1.31 0,-0.94 1.12,-2.44 2.62,-2.44 0.75,0 1.87,0.56 2.44,0.94l0.19 -2.25c-2.25,-1.12 -3.19,-1.87 -4.5,-3.94l-1.31 -1.5c-1.5,-2.06 -3.56,-3.94 -6.37,-4.87l-1.31 1.12z"/>
    <path class="fil1" d="M113.98 23.77c0,2.06 0.75,2.81 2.44,3.37 -0.75,-2.25 0.37,-2.62 -0.37,-4.87l1.5 0c-0.37,-0.75 -1.31,-1.12 -0.94,-2.44 0.37,-0.94 0.94,-1.5 1.69,-2.06l3.19 -2.44c0.56,-0.37 0.56,-0.56 1.12,-0.94l0.56 0.56c0.56,0.75 1.12,1.12 1.87,1.5 2.81,1.12 5.81,-1.69 3.75,-3.37 -0.94,-0.94 -2.81,-0.56 -2.25,0.94 0.37,-0.37 0.19,-0.94 1.12,-0.75 1.69,0.19 0.94,3 -1.69,2.44 -0.94,-0.19 -1.69,-1.12 -1.87,-2.06 -0.37,-1.31 0.56,-1.87 0.75,-3l-2.25 -0.19c-0.37,1.31 -1.69,2.81 -2.62,3.75 -1.12,0.94 -2.44,1.69 -3.56,2.81 -0.94,0.75 -4.12,4.12 -3.94,5.62 0,0 0.56,1.12 1.12,1.12 0,0 0.19,0 0.19,0 0,0 0,0 0,0l0.19 0z"/>
    <path class="fil1" d="M186.32 182.49c1.69,0.19 0.94,1.87 3.56,3 -0.37,0.37 -0.75,0.56 -1.12,1.12 4.31,-0.19 2.06,3.94 2.06,9.18 -1.5,0 -2.25,-0.37 -3.56,0.37 -2.81,1.5 -2.25,5.25 0.19,4.87 1.31,-0.19 1.5,-0.94 1.31,-2.06l-0.37 0c0,1.87 -2.06,1.69 -2.06,0 0,-2.44 3.56,-2.81 4.68,-1.12 0.37,0.75 0.19,1.31 0.75,2.06 0.56,-0.37 1.12,-0.94 1.69,-1.31 -0.56,-2.44 -0.75,-1.69 -0.75,-4.68 0,-3.19 1.5,-4.12 0,-9.93 -0.37,-1.5 -0.37,-1.5 -2.44,-1.5l0.19 0.75c-0.94,-0.75 -1.12,-1.69 -3.19,-1.31 -0.75,0 -0.75,0.19 -0.94,0.56z"/>
    <path class="fil1" d="M39.4 188.68c-0.37,-0.19 0,0 -0.37,-0.19 -0.56,-0.19 -0.94,-0.37 -0.94,-1.12 0,-1.69 3.37,-1.5 3.37,1.5 0,1.87 -1.31,2.62 -3,2.81 0.37,0.75 0.94,1.31 1.31,1.87 4.68,-2.06 7.87,0.75 13.49,-0.37 1.12,-0.37 1.5,-0.56 2.44,-0.94l0.19 -1.87c0,0 -0.37,0.19 -0.37,0 -0.37,0 -0.19,0.19 -0.37,0 1.31,-0.56 2.06,-3 0.75,-4.12 -0.19,2.06 -2.25,1.31 -3,3.56l-0.19 -0.19c-0.19,-0.19 -0.19,0 -0.37,-0.19 -0.19,-0.37 -0.19,-0.37 -0.56,-0.56 0,3.75 -3.19,2.62 -6,2.25 -1.12,-0.19 -2.25,0 -3.37,-0.19 0.75,-1.69 0,-5.43 -3.56,-5.43 -2.44,0 -2.06,4.31 0.56,3.19z"/>
    <path class="fil1" d="M57.39 199.73c0,-1.5 0,-2.25 -0.56,-3.19 -0.56,-0.56 -1.31,-1.5 -2.06,-1.69 0.75,3.94 -0.75,2.06 0.56,5.25l-1.5 -0.19c1.5,1.5 2.81,1.87 2.81,5.06l1.5 0.37c0,-2.06 -0.37,-2.44 0.37,-4.68 1.5,-4.68 8.06,-5.25 9.93,-2.44l0.94 -0.19c-0.37,-0.56 -0.75,-0.75 -0.94,-1.12 2.25,0.37 3.75,0.56 5.06,-2.44 -1.31,0.37 -0.75,0.56 -2.25,0.19 -1.12,-0.37 -1.5,-0.19 -2.62,0l-0.19 -0.56c-0.37,-0.56 -0.56,-0.75 -1.31,-0.94 -0.19,3.75 -4.12,0.75 -7.87,4.31 -0.94,0.75 -1.12,1.5 -1.87,2.25z"/>
    <path class="fil1" d="M126.54 40.45l1.12 -0.56c0,-2.25 0,-2.81 -0.56,-4.68 1.5,0.56 2.62,0.94 4.12,0.19 2.62,-1.12 3.75,-4.87 1.31,-6.56 -0.37,-0.19 -1.5,-0.94 -1.5,0 0,1.12 0.94,0.56 1.69,0.56 0.94,1.69 0.94,2.62 -0.19,4.12 -2.81,3.94 -9.56,-0.37 -7.31,-6.18 1.69,-4.68 7.12,-6.18 11.43,-3.75 1.69,1.12 1.87,1.5 3.19,2.81 0.56,-0.37 0.94,-0.37 1.5,-0.75 -5.43,-7.12 -15.55,-5.43 -17.43,1.5 -1.5,6.18 3.75,6 2.62,13.3z"/>
    <path class="fil1" d="M54.02 172.75c-0.94,-4.31 -8.25,-4.12 -8.25,0.56 0,0.75 0.37,1.5 1.12,1.5 0.56,-1.31 0,-1.12 -0.75,-1.5 0.19,-4.31 7.31,-4.5 7.31,0.94l0 0.94c0,4.87 -8.43,7.87 -12.37,2.62 -1.87,-2.44 -2.25,-4.5 -2.25,-7.68 -0.75,-0.19 -0.56,-0.37 -1.5,-0.37 -0.19,3 0,5.43 1.87,8.25 2.81,3.94 8.25,5.25 12.18,2.25 4.12,-2.81 2.06,-5.81 5.25,-9.18 0.56,-0.56 1.12,-0.94 1.5,-1.5 -1.5,-0.37 -2.25,0.37 -3.37,2.25 -0.19,0.56 -0.19,0.75 -0.75,0.94z"/>
    <path class="fil1" d="M16.92 131.33c-0.75,-0.94 -0.37,-0.94 -1.12,-1.12 0.37,1.31 0.19,3.19 -0.75,4.5 -1.12,1.5 -0.37,0.94 0,2.25 0.94,-0.37 2.62,-4.5 7.87,-3.56 2.06,0.37 3.75,2.25 4.31,4.12 0.37,1.31 -0.19,1.69 0.94,2.06 0.37,-0.56 0,-0.19 0.19,-0.75 0,0 0,0 0,-0.19l0.19 -0.19c0.56,1.5 3.37,3 5.25,1.69 -1.5,-0.56 -1.12,-0.37 -1.87,-1.5 -0.37,-0.75 -0.94,-1.5 -1.87,-1.69 0.19,-0.94 0.56,-0.37 0.19,-2.06 -0.56,0.19 -1.69,0.94 -3,0 -0.94,-0.56 -1.31,-1.12 -2.25,-1.69 -2.44,-1.5 -3.37,-0.94 -6.37,-0.75 0.37,-0.56 1.12,-0.75 1.5,-2.25 0.37,-1.12 0.19,-1.87 0.19,-3.19l-0.75 1.12c-0.19,0.19 -0.75,0.56 -0.94,0.75 -0.94,0.75 -1.5,1.12 -1.69,2.44z"/>
    <path class="fil1" d="M101.43 15.34c5.62,3.56 4.12,10.49 -0.56,11.81 -1.87,0.56 -1.69,0 -2.06,1.12l1.31 0c-1.69,1.5 -2.25,1.12 -2.25,3.94 0,0.75 0.19,0.75 0.19,1.5 0.37,-0.37 0.19,-0.56 0.56,-1.12 0.75,-0.75 2.44,-0.94 2.81,-2.62 0.37,0.19 0.56,0.56 1.31,0.37 1.87,-0.19 -0.75,-1.12 0.75,-3.56 1.87,-2.44 2.62,-2.06 2.62,-6.56 0,-0.75 -0.19,-0.75 -0.19,-1.5 1.12,0.75 1.87,2.44 5.62,1.5 -3.19,-1.31 -1.31,-2.25 -4.5,-3.37 0.56,-0.37 0.75,-0.19 1.12,-0.94 -3.56,0.19 -3.37,-0.19 -5.43,-1.5 -0.75,0.19 -0.94,0.37 -1.31,0.94z"/>
    <path class="fil1" d="M110.61 198.79c0,1.5 -0.19,2.81 0.56,4.31 -0.94,-0.19 -1.12,-0.56 -2.44,-0.56 -2.25,0 -4.31,2.06 -4.31,4.5 0,2.06 2.81,3.94 2.81,2.44 0,-0.75 0,0 -0.19,-0.56 -0.56,-0.19 -0.75,0 -1.31,0.19 -0.75,-1.12 -1.31,-1.87 -0.56,-3.56 2.06,-4.87 9.56,-1.5 8.06,4.68 -0.56,3.19 -3.56,5.62 -6.37,5.62 -3.37,0 -5.43,-0.75 -7.68,-3.19 -0.94,-0.94 -0.94,-0.56 -2.06,0 0.56,1.87 5.43,4.68 8.06,4.68 2.81,0 4.5,-0.19 6.75,-2.44 2.44,-1.87 2.62,-4.12 2.62,-6.75 0,-3 -3,-3.19 -3,-8.99 0,-0.56 0.19,-0.75 0.19,-1.31 -0.56,0.37 -0.94,0.37 -1.12,0.94z"/>
    <path class="fil1" d="M194.75 166c0,1.5 -0.75,1.12 -0.19,3.56l-0.19 0.19c0,0 -0.19,0 -0.19,0 -0.56,0.37 -0.94,0.56 -0.94,1.5 4.12,0.37 -0.56,5.25 6.56,9.74 -1.5,0 -2.25,0 -3.19,0.56 -0.56,0.37 -1.69,1.31 -1.87,2.06 3.37,-0.75 2.25,0.56 5.25,-0.56l-0.19 1.5c1.31,-1.5 2.25,-2.81 5.06,-2.81l0.37 -1.69c-3,0.37 -5.81,0.37 -7.87,-2.62 -1.31,-1.87 -1.5,-4.31 0,-6.56 0.75,-1.31 0.75,-0.37 0.56,-1.87 -0.56,0.37 -0.75,0.56 -1.12,0.94 0.37,-1.12 0.37,-2.44 -0.19,-3.37 -0.56,-0.75 -1.31,-1.5 -2.25,-1.69 0.19,0.37 0.37,0.56 0.37,1.12z"/>
    <path class="fil1" d="M68.82 58.25c0.19,-1.5 0.19,-1.87 -2.06,-3.37 -0.56,-0.19 -0.94,-0.37 -1.31,-0.75 1.31,-0.75 3.94,-1.69 3.19,-5.62 -0.75,-2.81 -3.56,-3 -4.68,-2.44 -0.56,0.37 -0.37,0 -0.37,0.75 0.75,0.75 1.12,0.37 1.31,-0.56 3.94,0 4.12,4.87 1.69,6.37 -6.93,4.5 -13.87,-8.43 -3.75,-12.93 4.12,-1.87 5.62,0.75 5.81,-2.44 -5.06,0 -9.37,1.5 -11.24,5.62 -2.06,4.12 -0.37,9.74 4.12,11.24 2.44,0.75 3.75,0.37 5.81,2.62 0.37,0.37 1.12,1.31 1.5,1.5z"/>
    <path class="fil1" d="M204.49 98.17c0,0 0.19,0 0.19,0l0.94 0.56c0.94,0.56 0.19,1.12 2.62,2.81 -0.56,0.94 -0.37,0.94 -0.19,2.06 4.12,-2.25 3.19,2.62 9.37,2.62 0.94,0 1.5,-0.19 2.25,-0.37 -0.56,0.94 -2.44,1.87 -1.69,5.62 0.94,-1.5 0.56,-1.12 1.87,-2.06 1.5,-1.31 0.75,-0.94 1.69,-2.44 0.19,0.75 0.37,0.94 0.94,1.31 -0.94,-5.43 2.81,-4.87 0.56,-6.75 -0.94,0.75 -2.25,3.56 -6.18,3.56 -2.62,0 -5.06,-1.69 -5.81,-3.94 -0.37,-1.5 0.37,-1.87 -0.94,-2.44 -0.37,0.56 -0.19,0.56 -0.19,1.31 0,0 0,-0.19 0,-0.19 0,0 -0.19,0 -0.19,0 -0.19,-0.37 0,-0.19 -0.19,-0.37 -0.19,-0.19 -0.19,-0.19 -0.37,-0.56 -0.37,-0.37 -0.75,-0.56 -1.31,-0.75 -1.31,-0.56 -2.06,-0.19 -3.37,0z"/>
    <path class="fil1" d="M197.75 126.65c0.19,0.37 0.56,0.75 0.75,1.12 3.37,0 1.87,-0.19 4.5,-0.56 -0.37,1.31 -0.94,2.25 -0.19,3.75 1.5,3.56 6,3.75 6.93,0.94 0.37,-0.94 0,-0.94 -0.94,-0.75 -0.19,1.12 0.56,1.31 -0.37,1.87 -0.75,0.37 -1.69,0.56 -2.62,0.19 -5.43,-1.69 -1.5,-10.49 5.06,-8.06 1.69,0.56 2.81,1.5 3.56,2.62 2.06,3 1.69,6.75 -0.37,9.74 -1.87,2.62 -2.62,1.69 -1.5,3.75 1.69,-0.37 3.94,-4.5 4.5,-6.75 1.69,-7.31 -5.25,-12.56 -10.68,-10.31 -1.5,0.75 -1.87,1.5 -3.56,2.06 -2.25,0.75 -2.81,0.37 -5.06,0.37z"/>
    <path class="fil1" d="M33.03 58.25c3.56,-0.56 6.56,0.19 8.43,3.75 0.56,1.12 0.56,2.81 0.19,4.12 -1.12,3 -1.5,1.12 -1.31,3.19l1.12 -0.94c-0.37,2.25 -0.37,4.12 2.44,5.06 -1.12,-2.25 0.56,-1.12 -0.19,-4.87 1.12,0 0.94,-0.37 1.5,-1.31 -3.37,-1.12 -1.87,-2.44 -2.81,-5.25 -0.75,-2.44 -2.06,-3.19 -3.56,-4.5 2.25,0 4.12,-1.31 4.68,-2.81 -2.44,0.75 -1.12,0.19 -3.37,0.19 -1.31,0 -0.94,0.19 -1.87,0.37l0.19 -1.31c-0.94,0.75 -1.12,1.69 -2.62,2.25 -0.75,0.37 -1.31,0.19 -2.06,0.37 -0.75,0.37 -0.56,0.94 -0.75,1.69z"/>
    <path class="fil1" d="M173.95 41.95c-3,0 -3.19,-1.69 -4.87,-1.69 0.19,0.75 0.37,0.56 0.75,1.12 -1.5,-0.19 -2.62,-0.37 -3.75,0.75 -0.56,0.37 -1.12,1.12 -1.31,1.87 1.87,-1.31 2.25,0.56 4.87,-0.37l0.19 0.19c0,0.19 0,0.37 0,0.37 0.19,0.56 0.37,0.75 1.31,0.94 0.19,-3.75 4.12,-0.75 7.87,-4.31 0.94,-0.75 1.12,-1.31 1.87,-2.25 0,1.87 0,2.06 0.75,3.19 0.37,0.75 1.31,1.69 2.06,1.87 -0.56,-1.12 -0.37,-2.25 -0.19,-3.56 0.19,-0.56 -0.37,-1.5 -0.56,-1.87l1.5 0.19c-1.5,-1.31 -2.81,-2.25 -2.81,-5.06l-1.69 -0.19c1.5,3 -1.12,8.81 -6,8.81z"/>
    <path class="fil1" d="M172.64 184.37c-2.06,0.37 -3.56,2.62 -2.81,5.43 0.19,1.12 0.94,2.06 1.87,2.44 1.12,0.56 2.44,0.37 3.19,-0.37 -0.56,-0.56 -0.19,-0.56 -0.94,-0.75 -0.37,0.37 -0.37,0.37 -0.56,0.94 -2.06,0 -3.37,-1.12 -3.37,-3.37 0,-5.43 10.49,-5.62 10.49,3.19 0,3.94 -3.75,6.93 -7.68,7.5 -0.94,0.19 -1.5,0 -2.25,0 -0.75,0.19 -0.94,0.94 -0.94,1.69 5.06,0 8.25,-0.94 10.87,-4.87 2.62,-3.75 1.12,-10.31 -3.56,-11.81 -2.44,-0.75 -3.56,-0.37 -6.18,-2.62 -0.56,-0.75 -0.75,-1.12 -1.31,-1.69 -0.19,1.31 -0.37,1.87 2.06,3.37 0.56,0.37 0.94,0.37 1.12,0.94z"/>
    <path class="fil1" d="M21.04 104.91c0,2.81 0.19,4.87 2.62,7.31 2.25,2.25 5.62,3.19 8.62,1.69 1.31,-0.56 1.12,-0.75 2.06,-1.31 2.06,-1.12 3.37,-0.94 6.18,-0.94 -1.12,-2.06 -3.37,-0.75 -5.25,-0.56 0.37,-1.5 0.94,-2.25 0.19,-4.12 -1.5,-2.81 -5.25,-3.19 -6.56,-1.12 -1.5,1.87 1.12,2.25 0.37,0 0.75,-0.56 0.94,-0.94 2.06,-0.94 3,0 5.43,3.94 2.25,7.12 -3.94,3.75 -10.49,0.19 -11.06,-4.68 -0.37,-2.81 0.56,-5.25 2.25,-7.12 0.56,-0.94 0.94,-1.12 1.5,-1.69 0,-0.75 -0.37,-0.94 -0.56,-1.5 -1.69,0.75 -4.68,5.25 -4.68,7.87z"/>
    <path class="fil1" d="M136.84 208.35c-0.37,-0.19 -2.25,-0.94 -1.87,0.37 0,0 0.19,0.56 0.37,0.56 0,0.56 0,1.12 -0.19,1.69 -0.37,0.56 -1.31,1.5 -1.87,2.06 -1.5,2.25 -0.94,3.94 -0.94,6.56 -1.87,-1.5 -2.25,-1.87 -5.62,-1.5 1.31,0.94 1.12,0.37 2.25,1.69 0.56,0.94 1.12,1.5 2.44,1.69 -0.75,0.37 -0.94,0.37 -1.31,1.12 1.31,-0.37 2.81,-0.19 3.94,0.19 1.31,0.75 1.31,1.87 2.81,0.37 -0.56,-0.56 -4.5,-2.81 -3.56,-7.68 0.56,-2.25 2.06,-3.75 4.12,-4.31 1.12,-0.37 1.69,0 2.06,-0.94 0,0 0,-0.19 -0.19,0l-0.56 -0.19c-0.19,0 -0.37,0.19 -0.75,0.19 1.5,-1.12 2.44,-1.5 2.44,-3.75 0,-0.75 0,-1.12 -0.37,-1.69 -0.75,2.25 -2.62,1.31 -3.19,3.56z"/>
    <path class="fil1" d="M180.13 68.75c1.12,0.56 1.69,-0.19 2.25,-0.94 1.12,-1.31 1.31,-1.87 1.87,-2.25 1.31,5.43 9.93,3.19 8.06,-1.5 -0.37,-0.56 -0.19,-0.56 -0.94,-0.56 -0.75,1.31 0.19,1.12 0.75,1.69 -0.75,4.68 -7.31,3.75 -7.31,-0.75 0,-2.44 0.37,-4.12 2.81,-5.62 3.37,-2.06 7.68,-1.12 9.93,2.25 1.69,2.44 1.87,4.31 1.87,7.12 0.56,0.37 0.75,0.19 1.31,0.56 0.94,-3 -0.94,-7.12 -2.06,-8.62 -4.12,-5.62 -12.37,-4.31 -14.43,1.12 -0.56,1.69 -0.37,2.81 -1.31,4.5 -1.31,2.06 -2.44,2.44 -2.81,3z"/>
    <path class="fil1" d="M81 197.67c0,3.19 -0.19,3.56 -0.94,6.37 0.37,0.75 0.94,1.31 1.87,1.5 2.44,-6.18 -0.19,-10.31 2.44,-13.68 2.25,-3 8.06,-0.56 8.06,2.62 0,1.12 0,1.5 -0.56,2.62 0.75,-0.19 1.69,-0.75 2.25,-1.12 0,-2.44 -0.56,-3.19 -2.06,-4.5 -1.87,-1.69 -3.75,-2.06 -6.18,-2.06 -1.69,0 -3.19,1.69 -3.94,2.81 -0.94,1.87 -0.94,3 -0.94,5.43z"/>
    <path class="fil1" d="M32.84 82.05c0.94,0.19 1.69,0.56 2.62,0.75 4.12,0.75 6,0.19 7.12,0.19 8.62,0.56 5.25,9.56 0.94,9.56 -0.94,0 -1.5,-0.37 -2.25,-0.56 0,0.19 0.94,2.25 1.5,2.25 1.87,0 3.56,-1.12 4.31,-2.44 3.94,-5.62 1.12,-10.68 -4.87,-10.87 -2.25,0 -3.94,0.19 -5.81,-0.37 -0.75,-0.19 -3,-1.5 -3.56,1.5z"/>
    <path class="fil1" d="M204.12 158.32c0.37,-0.75 1.12,-0.94 1.31,-1.87 0,0 -0.19,-0.19 -0.19,0 0,0 0,-0.19 0,-0.19 0,0 -0.37,-0.19 -0.37,-0.19 -6.18,-2.06 -10.12,0.56 -13.3,-2.06 -2.44,-2.25 -0.75,-7.12 1.87,-8.06 1.69,-0.37 2.25,0.19 3.56,0.37 -0.19,-0.37 -0.56,-1.12 -0.75,-1.69 -0.56,-0.75 -0.75,-0.56 -1.69,-0.37 -5.62,0.94 -8.25,12.18 0.75,13.12 4.68,0.37 1.87,-0.75 8.81,0.94z"/>
    <path class="fil1" d="M151.46 206.85l2.25 0c0.19,-0.37 0.19,-0.19 0,-0.56 0,-0.94 -3,-4.5 -3.75,-5.43 -2.06,-2.06 -4.12,-3 -4.12,-6.37 0,-3 6.18,-6.56 8.81,-1.69 0.19,0.37 0,0.19 0.19,0.37 0.19,0.37 0,0.19 0.19,0.37 0.19,-0.75 0.37,-1.69 0.75,-2.44 -0.75,-0.56 -1.5,-1.5 -3,-1.69 -3.37,-0.37 -8.43,1.69 -8.43,5.62 -0.19,5.81 4.87,6.37 7.12,11.81z"/>
    <path class="fil1" d="M84.38 31.64c0.37,1.87 2.81,4.5 3.94,5.81 2.44,2.44 4.12,3 4.12,6.75 0,2.25 -6.18,6.56 -8.81,1.12l-0.37 -0.56c-0.19,0.75 -0.56,1.87 -0.56,2.62 2.06,1.5 3.37,2.44 6.93,0.94 6.37,-2.81 4.87,-8.25 1.31,-11.43 -1.87,-1.5 -3,-3.19 -4.12,-5.43l-2.44 0.19z"/>
    <path class="fil1" d="M31.34 151.57l0.37 2.44c6.56,-3.19 6.75,-6.75 10.68,-8.06 3,-0.94 4.5,1.5 5.25,3.56 1.31,3.94 -1.69,4.68 -3,5.62 1.87,0.37 2.62,1.31 3.56,-0.37 0.75,-1.31 0.94,-2.62 0.56,-4.31 -1.5,-6.93 -6.93,-7.87 -11.62,-3.37 -2.06,2.06 -3,3 -5.81,4.5z"/>
    <path class="fil1" d="M189.31 85.99c0,7.12 6,11.43 12.18,4.68 1.5,-1.5 3.37,-3 5.43,-3.94l-0.19 -2.25c-1.12,-0.37 -5.06,3 -6,3.94 -1.5,1.5 -3.19,4.12 -6.18,4.12 -3,0 -5.43,-4.68 -3.56,-7.5 0.75,-1.12 1.69,-1.12 2.44,-1.87 -1.5,0 -2.06,-0.94 -3,-0.19 -0.37,0.56 -1.12,2.06 -1.12,3z"/>
    <path class="fil1" d="M155.21 40.64l0 2.62c0,4.12 -3.94,6 -7.5,3.56 -2.44,-1.69 -2.06,-3.37 -1.31,-5.62 -2.44,0.94 -2.25,1.12 -2.25,2.25 0,3 4.5,5.81 8.06,5.43 2.06,-0.19 3.37,-1.5 3.94,-2.81 1.87,-3.19 0.56,-4.87 1.5,-9.18 0.19,-0.94 0.37,-1.87 0.56,-2.62 -0.37,-0.56 -0.94,-1.12 -1.87,-1.5 -0.94,2.06 -1.12,4.87 -1.12,7.87z"/>
    <path class="fil1" d="M15.79 108.29c0.56,-0.56 0.75,-0.56 0.94,-1.31l0.56 1.31c0.75,1.31 1.12,0.37 3,3.19 0.75,-3.75 -0.94,-4.68 -1.69,-5.62 0.56,0.19 0.56,0.19 1.31,0.19 0,-1.87 0.19,-0.75 -1.87,-1.87 -2.81,-1.69 -3.75,-4.31 -3.75,-7.87 -0.37,-0.37 -0.94,-0.94 -1.69,-1.12 -0.19,2.81 0.37,5.06 1.31,6.93 1.69,2.81 2.25,1.69 1.87,6.18z"/>
    <path class="fil1" d="M199.99 55.25c-0.75,-0.19 -0.75,-0.56 -2.44,-0.37 -2.06,0.19 -0.56,0.56 -2.81,-0.19 0.75,1.69 2.44,2.81 4.68,2.81 -0.37,0.37 -0.37,0.19 -0.75,0.75l0.56 0.75c1.87,-0.37 0.94,-0.94 4.5,-0.94 2.25,0 3.94,1.31 5.25,2.81 0.75,0.56 0.94,0.19 2.25,0.19 -0.37,-1.69 -3.37,-3.56 -5.06,-4.12 -1.31,-0.37 -2.81,-0.37 -3.94,-0.75 -1.31,-0.75 -1.5,-1.69 -2.44,-2.25 0,0.75 0,0.75 0.19,1.31z"/>
    <path class="fil1" d="M219.67 132.46l-1.31 -0.19c0,1.5 0,1.12 1.12,1.5 0.37,0.19 0.75,0.37 1.12,0.75 0.75,0.37 1.5,1.12 1.87,1.87 1.31,1.69 1.5,3.19 1.5,5.81 0.56,0.37 0.94,0.75 1.69,0.94 0.19,-9.56 -4.87,-7.87 -3.19,-12.93 -0.75,0.19 -0.37,0.19 -1.12,1.12 -0.19,-2.06 -1.87,-2.25 -2.62,-3.19 -0.37,-0.56 -0.19,-0.75 -0.75,-1.31 -0.19,1.12 -0.19,2.62 0.19,3.37 0.37,1.31 0.94,1.5 1.5,2.25z"/>
    <path class="fil1" d="M180.88 199.73c-0.37,-0.37 -0.56,-0.75 -0.94,-1.12l-0.75 0.75c1.31,2.81 1.69,5.43 -0.37,8.43 -0.37,0.37 -0.56,0.75 -0.94,0.94 -0.37,0.56 -1.31,0.94 -0.37,2.81 1.5,-1.5 3,-3 3.75,-5.43 0.37,-1.31 0.37,-2.62 0.94,-3.75 0.56,-1.12 1.5,-1.5 2.25,-2.44l-1.5 0.19c1.12,-2.62 0,-1.12 0.56,-5.25 -0.75,0.19 -1.5,1.12 -2.06,1.69 -0.56,0.94 -0.56,1.69 -0.56,3.19z"/>
    <path class="fil1" d="M53.83 38.39l1.5 -0.19c-1.12,2.62 -0.37,1.12 -0.37,4.12 0,0.56 -0.19,0.94 -0.37,1.31 0.94,-0.19 1.69,-1.12 2.06,-1.87 0.75,-1.12 0.75,-1.5 0.75,-3.19 0.37,0.37 0.56,0.56 0.75,1.12l0.94 -0.75c-3.37,-6.37 2.25,-9.56 2.06,-10.49l-0.19 -1.5c-1.31,0.56 -3.37,3.37 -3.94,5.25 -1.12,3.94 0.37,3 -3.19,6.18z"/>
    <path class="fil1" d="M27.03 177.43c0.37,1.31 3.37,3.37 5.25,3.94 1.12,0.37 2.81,0.37 3.75,0.94 1.12,0.56 1.5,1.5 2.44,2.25l-0.19 -1.5c3.37,1.12 1.69,-0.19 5.25,0.56 -0.94,-2.44 -3.37,-2.62 -5.06,-2.62 0.75,-0.56 0.75,-0.37 1.12,-0.94l-0.56 -0.75c-0.94,0.19 -4.87,2.81 -9.18,-1.12 -1.12,-0.94 -0.75,-1.31 -2.81,-0.75z"/>
    <path class="fil1" d="M105.74 219.97l0.37 -1.5 -1.31 0c-0.37,1.87 -1.5,3.37 -2.81,4.31 -1.87,1.12 -3.19,1.31 -5.81,1.31 -0.37,0.75 -0.75,0.94 -1.12,1.5 1.69,0.56 4.68,-0.19 6,-0.75 3.56,-1.5 1.69,-2.44 6.37,-2.44 0.56,0 0.37,0 0.75,0.19 -0.37,-0.75 -0.56,-0.75 -1.31,-1.12 1.31,-0.19 1.87,-0.56 2.44,-1.5 0.94,-1.31 0.75,-1.12 2.25,-1.87 -3,-0.37 -4.5,0 -5.81,1.87z"/>
    <path class="fil1" d="M54.96 175.75c1.12,-0.19 1.87,-0.94 3.37,-1.12 -1.69,2.44 -3.56,5.25 -2.25,8.81 0.56,1.12 1.31,1.5 2.06,2.06 0.56,-0.37 0.56,-0.37 1.12,-0.75l-0.56 -0.19c-0.56,-0.37 -1.12,-0.56 -1.5,-1.31 -1.12,-2.44 0.19,-6.18 2.25,-8.25 2.06,-1.87 6,-0.56 7.87,1.31 0.75,0.56 1.12,1.69 1.69,2.06 0.56,-0.94 0.56,-1.12 -0.19,-1.87 -1.31,-1.87 -3,-3 -5.25,-3.37 -2.44,-0.56 -5.43,0 -7.5,0.75 -0.94,0.37 -0.94,0.75 -1.12,1.87z"/>
    <path class="fil1" d="M130.1 15.9c0.37,0.56 0.37,0.56 1.12,0.75 -0.75,0.75 -1.31,0.37 -2.25,1.69 -1.12,1.69 -1.12,1.31 -2.25,1.87 3.94,0.37 3.19,0.37 5.81,-1.69l-0.37 1.31 1.31 0c0.37,-1.87 1.5,-3.37 2.81,-4.31 1.87,-1.12 3.19,-1.31 6,-1.31 0.19,-0.75 0.56,-0.94 0.94,-1.5 -2.25,0 -4.31,-0.37 -6.75,1.12 -2.44,1.31 -2.06,2.44 -6.37,2.06z"/>
    <path class="fil1" d="M179.01 53.57c0.56,0.56 3,0.94 2.44,4.87 -0.37,1.87 -1.31,3.75 -2.62,4.87 -2.06,2.06 -5.62,0.75 -7.87,-1.31 -0.94,-0.56 -0.94,-1.31 -1.69,-2.06 -0.56,1.12 -0.37,1.31 0.37,2.25 0.56,0.75 0.75,1.12 1.69,1.69 3,2.06 6.18,1.87 9.56,0.94 2.81,-0.75 1.87,-0.75 2.44,-2.06 -0.19,0 -3,0.94 -3.37,1.12 0.37,-1.12 2.06,-2.25 2.62,-5.62 0.37,-2.62 -0.75,-4.87 -2.62,-5.25 -0.56,0.37 -0.19,0.37 -0.94,0.56z"/>
    <path class="fil1" d="M33.97 113.91c0.94,0.19 2.44,0.94 3.19,1.5 -2.44,0.19 -3.56,0.56 -5.25,1.69 -1.87,1.12 -3,2.44 -3,4.68 0,0.37 0.19,0.94 0.37,1.31l1.31 0c-2.44,-4.12 3.75,-6.56 6.18,-6.56 3.75,-0.37 5.43,3.75 5.43,6.93 0,0.56 -0.37,1.5 -0.37,2.06 1.12,-0.19 1.12,-0.37 1.31,-1.69 0.19,-1.12 0.19,-1.5 0,-2.62 -0.56,-3.75 -3.94,-6.37 -7.31,-7.87 -0.94,-0.56 -1.5,-0.19 -1.87,0.56z"/>
    <path class="fil1" d="M115.29 29.21l0 1.31c4.12,-1.87 6.56,3.37 6.56,6.93 0,2.06 -1.87,3.37 -3.19,3.94 -3.19,1.5 -5.06,0.37 -6,0.37 0.75,1.5 0.75,1.5 3.75,1.5 2.06,0 4.68,-1.87 6,-3.37 0.75,-0.75 1.31,-1.69 1.87,-2.81 0.94,-1.31 1.5,-1.87 0.19,-3.19 -0.56,1.12 -0.56,2.06 -1.5,3 -0.37,-2.81 -1.69,-6.37 -4.31,-7.5 -1.31,-0.75 -1.87,-0.37 -3.37,-0.19z"/>
    <path class="fil1" d="M113.8 204.42c0.19,-0.56 0.37,-0.94 0.56,-1.5 0.37,-0.75 0.56,-0.94 0.75,-1.5 0.37,0.56 0.37,0.56 0.37,1.5 0.19,0.37 0.37,1.12 0.56,1.5 1.12,3 3,5.81 6.93,4.68l0 -1.31c-0.56,0.19 -0.75,0.56 -1.69,0.56 -2.62,0 -4.87,-3.94 -4.87,-7.5 0,-3 4.5,-4.68 5.62,-4.68 3,0 1.69,0.19 3.37,0.37 -0.19,-1.31 -1.12,-1.5 -3.19,-1.5 -2.06,0 -4.87,1.69 -6.37,3.19 -0.75,0.94 -1.31,1.87 -1.87,3 -0.75,1.12 -1.69,2.25 -0.19,3.19z"/>
    <path class="fil1" d="M63.76 58.44c-1.12,-1.12 -3.37,-2.44 -5.25,-2.62 -3.56,-0.37 -4.5,0.56 -5.62,2.44 0.37,0.56 0.37,0.37 0.75,0.94l0.37 -0.56c2.62,-4.31 10.31,0 10.31,2.81 0,1.87 -0.37,3.56 -1.31,5.06 -0.75,0.75 -1.31,1.31 -2.25,1.87 -0.56,0.37 -0.56,0.19 -0.75,0.75 1.31,0.37 0.94,0.56 2.06,-0.37 0.56,-0.37 1.12,-0.94 1.69,-1.5 2.25,-3 1.87,-6.75 0.94,-10.12 -0.37,-1.5 -0.37,-2.06 -2.06,-2.06 0.37,0.56 1.12,2.44 1.12,3.37z"/>
    <path class="fil1" d="M172.82 175.75c0,2.81 -0.19,2.62 0.75,5.43 0.37,1.5 0.19,2.06 2.06,2.06 -0.37,-0.75 -0.94,-2.25 -1.12,-3.19 1.87,0.94 5.25,3.75 8.99,2.06 0.94,-0.37 1.5,-1.12 1.87,-2.25l-0.75 -0.75c-0.37,0.56 -0.56,1.31 -1.12,1.69 -2.81,2.25 -9.56,-0.94 -9.56,-3.94 0,-3.19 1.87,-6.75 4.31,-7.31 -0.94,-1.69 -3.37,1.12 -3.94,1.87 -0.56,0.94 -1.5,3 -1.5,4.31z"/>
    <path class="fil1" d="M135.35 37.08c-2.06,0 -2.81,0 -4.31,0.75 -2.44,1.12 -2.44,3 -6.18,4.12 -2.44,0.75 -1.69,-0.56 -4.31,0.94l0.19 0.19c0.19,0 3.56,1.31 7.5,-1.87 0.75,-0.56 0.94,-1.12 1.87,-1.69 2.62,-2.44 6.93,-1.87 8.25,2.44 0.37,-0.37 0.94,-1.5 1.31,-2.06 -0.75,-1.12 -2.62,-1.87 -1.5,-4.12 -0.75,0 -0.75,0.37 -1.31,0.75 -0.37,-1.31 -1.5,-1.31 -2.25,-2.25 -0.37,-0.56 0,-0.37 -0.37,-1.12 -0.94,2.06 0,3 1.12,3.94z"/>
    <path class="fil1" d="M187.44 78.12c0.75,0 1.31,-0.37 2.25,-0.37 0.19,-0.94 0,-2.06 0.37,-2.81 0.37,-1.12 0.94,-0.56 1.31,-1.5 -0.94,-0.19 -0.56,-0.19 -1.31,0 0.37,-0.75 0.19,-1.5 0,-2.25 -0.19,-1.12 0.19,-1.5 0.56,-2.06 -1.69,0.37 -2.06,1.31 -2.06,3.37 -1.12,-0.75 -1.12,-1.5 -2.81,-2.25 -1.87,-0.75 -2.44,-0.56 -4.68,-0.56 -4.12,-0.19 -4.5,-3.37 -6.93,-3.37 0.37,1.31 2.25,2.81 3.37,3.19 3,1.5 3.75,0.75 5.81,0.94 2.81,0.37 4.68,2.44 4.68,5.06 0,1.31 -0.37,1.69 -0.56,2.62z"/>
    <path class="fil1" d="M204.3 124.78l0 -0.37c-0.75,0 -2.25,-0.75 -3,-1.31l0.19 0c1.87,-0.56 2.44,-0.19 4.87,-1.87 2.81,-1.69 4.5,-6 1.31,-6 0.19,0.56 0.56,0.75 0.56,1.69 0,3 -7.12,7.87 -10.68,3 -2.44,-3.37 -1.31,-5.06 -1.12,-7.12 -1.12,0.37 -1.12,0.56 -1.31,1.69 -0.75,5.06 3,8.43 7.12,10.49 1.5,0.75 0.94,0.19 2.06,-0.19z"/>
    <path class="fil1" d="M36.97 100.42l-1.12 -0.19c0,0.75 0.19,0.75 0.75,1.12 -0.75,0.37 -1.12,0.75 -1.5,1.5 -0.94,1.12 -0.56,0.56 -1.87,1.31 2.06,0.56 3,0 3.94,-1.31 0.19,1.87 -0.37,3.94 2.06,6.18 0.75,0.75 1.31,1.31 1.87,2.44 2.25,3.75 0.19,5.06 1.87,6.18 0.94,-2.25 -0.19,-5.43 -1.12,-6.93 -1.31,-1.69 -1.5,-1.31 -2.25,-2.25 -2.62,-3.19 -1.69,-7.31 2.44,-8.62 -0.75,-0.37 -1.5,-0.94 -2.25,-1.12 -0.94,0.56 -1.31,1.69 -2.81,1.69z"/>
    <path class="fil1" d="M155.4 216.41c-0.37,2.44 0.19,5.06 1.31,6.18 2.25,2.06 6.18,0.56 8.06,-1.31 2.06,-2.44 -0.19,-6.18 -2.44,-7.5 1.69,2.44 3.19,4.87 -0.94,6.93 -2.44,1.12 -4.5,0.75 -5.43,-1.87 -0.37,-0.94 -0.19,-1.69 -0.56,-2.44z"/>
    <path class="fil1" d="M46.9 164.88c0.37,0.19 0.37,0.19 1.12,0.19 0,3.19 0.56,2.62 -0.37,4.12 1.69,-0.19 2.06,-1.5 2.06,-3.37 1.12,0.94 0.75,1.31 3,2.25 1.69,0.75 2.62,0.37 4.68,0.56 2.25,0.37 3.75,1.31 5.06,2.81 0.75,0.75 0.75,0.37 1.87,0.75 -0.75,-1.5 -1.87,-2.62 -3.37,-3.37 -2.44,-1.12 -2.81,-0.75 -5.81,-0.94 -2.06,-0.19 -3.56,-1.31 -4.31,-2.44 -1.31,-2.44 -0.37,-3.94 0,-5.25 -2.62,0.37 -2.25,0.75 -2.44,1.87 0,2.44 -0.75,1.69 -1.5,2.81z"/>
    <path class="fil1" d="M105.36 200.29c-1.5,0 -2.44,0 -3.94,-1.31 -0.75,-0.56 -1.31,-1.5 -1.5,-2.62l-0.56 1.12c-0.37,0.37 -0.56,0.75 -0.75,1.12 1.87,1.5 1.87,2.25 1.69,3.94 0.56,-0.19 0.56,-0.19 0.94,-0.75 0.75,0.94 0,0.37 1.5,1.5 1.31,0.94 0.94,1.31 1.31,1.87 0.75,-2.44 0.19,-2.62 -1.12,-3.94 2.81,0 3.75,0 5.81,-1.69 1.31,-1.12 1.5,-2.25 4.68,-3.19 2.06,-0.56 2.62,0.37 4.31,-0.94 -0.94,-0.56 -2.62,-0.37 -3.94,-0.19 -1.12,0.37 -2.25,0.75 -3.19,1.31 -1.12,0.94 -3,3.75 -5.25,3.75z"/>
    <path class="fil1" d="M200.18 133.21c0,2.62 -0.94,3.94 -3.19,4.87 -0.75,0.37 -0.19,0 -0.56,0.56 0.75,0.19 1.31,0.75 2.06,0.94 2.06,-1.5 1.31,-1.87 3.94,-1.5 0,-0.56 0,-0.56 -0.56,-1.12 -0.19,0 -0.19,0 -0.19,0 1.87,-0.56 0.94,-2.06 3.19,-2.44 -0.75,-0.94 -2.44,-0.56 -3.56,0.56l-0.19 0.19c0,0.19 0,0.19 0,0.19 0,-2.44 0.19,-4.12 -2.06,-6.18 -5.06,-5.06 -1.69,-6.93 -3.75,-8.62 -0.94,2.06 0.19,5.62 1.31,6.93 1.12,1.69 3.56,3 3.56,5.62z"/>
    <path class="fil1" d="M216.48 155.69c3.94,0.19 5.81,2.06 4.12,5.81 -0.56,1.12 -1.5,2.44 -2.81,2.62 -1.87,0.19 -3,-1.12 -3.94,-1.69 0.56,1.31 5.81,6.56 8.81,0 3.19,-6.56 -3.75,-7.87 -6.18,-6.75z"/>
    <path class="fil1" d="M73.32 48.13c-1.5,-0.56 -2.25,0.56 -4.12,-0.37 0.37,1.5 1.69,2.06 3.37,1.87 -0.94,1.12 -1.5,1.12 -2.25,3 -0.94,2.06 -0.37,2.44 -0.56,4.68 -0.37,1.69 -0.75,2.62 -1.5,3.75 -1.5,2.06 -1.31,0.37 -2.06,3.19 2.06,-0.56 4.12,-4.31 4.31,-6.93 0,-2.25 -0.19,-3.19 0.75,-4.87 1.5,-2.06 3,-2.25 4.87,-2.25 0.56,0 1.5,0.56 2.06,0.75 -0.19,-0.94 -0.56,-1.5 -0.56,-2.44 -1.31,0 -3.37,0.37 -3.94,-1.69 -0.56,0.37 -0.37,0.37 -0.37,1.31z"/>
    <path class="fil1" d="M160.08 187.36c0.19,0.94 0.56,1.5 0.56,2.44 3.56,0 2.81,0.56 4.12,1.69l0.19 -1.31c2.25,0.75 1.5,-0.56 4.12,0.37 -0.37,-2.06 -2.25,-1.87 -3.37,-1.87 3.75,-3.94 2.25,-3.75 2.81,-7.68 0.37,-1.5 0.75,-2.62 1.5,-3.75 0.37,-0.56 0.75,-0.94 1.31,-1.31 0.56,-0.56 0.56,-0.94 0.75,-1.87 -1.31,0.56 -2.62,2.06 -3.19,3.37 -1.12,1.87 -1.12,2.81 -1.12,5.62 0,3.94 -4.12,6.56 -7.68,4.31z"/>
    <path class="fil1" d="M78.57 223.53l0.94 0c1.69,0 3.37,-2.25 3.37,-3.94l0 -3.19c-0.37,0.94 -0.19,4.87 -3.56,4.87 -2.25,0 -5.06,-1.5 -5.06,-4.31 0,-1.31 1.12,-2.06 1.5,-3 -1.31,0.75 -3.75,3.37 -2.81,6 0.75,2.25 4.12,3.56 5.62,3.56z"/>
    <path class="fil1" d="M24.41 162.44c-0.94,0.56 -4.5,3.94 -6.75,-0.94 -1.12,-2.44 -0.75,-4.5 1.87,-5.43 0.94,-0.37 1.31,-0.37 2.44,-0.37 -3,-1.12 -9.37,0.56 -6.37,6.56 3.37,7.12 8.62,1.12 8.81,0.19z"/>
    <path class="fil1" d="M14.85 78.49c0,1.5 0,2.81 2.06,3.75 1.31,0.56 2.44,0.75 4.31,0.75 -0.37,-0.56 0,-0.19 -0.75,-0.37 -1.12,-0.37 -3.37,-0.56 -3.37,-3.37 0,-2.06 1.69,-5.62 4.68,-4.87 1.31,0.37 1.5,0.94 2.25,1.12 -0.75,-1.5 -3.37,-3.37 -5.81,-2.62 -1.5,0.75 -3.37,3.37 -3.37,5.62z"/>
    <path class="fil1" d="M75.57 24.15c-0.75,-1.5 -1.31,-1.31 -1.31,-3.56 0,-2.44 5.62,-5.25 7.68,-2.06 0.75,1.31 0.37,2.25 0.94,3.37 0.19,-2.44 0.19,-5.62 -2.44,-6.75 -2.06,-0.94 -8.25,0.56 -7.68,5.06 0.19,1.31 1.69,3.56 2.81,3.94z"/>
    <path class="fil1" d="M214.24 75.49c0.56,-0.19 4.12,-3.56 6.37,1.5 0.56,1.12 0.94,2.81 0,4.12 -0.37,0.56 -0.94,0.94 -1.5,1.12 -0.56,0.19 -1.5,0.19 -2.06,0.56 1.5,0.75 4.68,-0.37 5.43,-1.31 2.25,-2.44 -0.19,-8.81 -3.75,-8.81 -1.69,0 -4.12,1.69 -4.5,2.81z"/>
    <path class="fil1" d="M155.4 21.9c0.37,-0.94 0.19,-4.87 3.56,-4.87 1.87,0 5.06,1.31 5.06,4.12 0,1.31 -0.75,1.87 -1.12,2.81 1.5,-0.37 5.62,-6 -0.75,-8.43 -5.06,-2.06 -7.31,0.94 -6.75,6.37z"/>
    <path class="fil1" d="M188.75 51.69c0.56,1.12 0.56,0.37 0.94,1.31 -0.94,0.19 -1.12,0.75 -1.87,1.5 -1.12,1.69 -0.94,0.94 -1.69,1.69 2.81,0.37 1.69,0.94 4.12,-0.75 0.19,0.75 -0.56,0.19 1.87,0.37 0.75,-2.25 1.5,-4.31 1.12,-7.31l-1.87 -0.19c0,2.44 0,3.37 -2.62,3.37z"/>
    <path class="fil1" d="M218.17 121.78c-1.69,0 -1.12,-0.56 -2.25,-0.94l0 1.5c-0.56,-0.19 -0.56,-0.37 -1.31,-0.37 -2.06,0 -1.31,0.75 -3.56,0 0.56,1.31 1.31,2.44 3.37,2.44 0,0 0,0 0,0 0,0.94 1.12,1.5 1.12,1.5 1.87,-0.37 5.06,-2.81 5.81,-4.12 -0.19,-0.56 -0.19,-0.37 -0.56,-0.75 -0.37,-0.75 0,-0.56 -0.75,-0.75 -0.19,0.56 -0.19,0.56 -0.75,0.94 -0.19,0.19 -0.75,0.56 -1.12,0.56z"/>
    <path class="fil1" d="M16.92 116.53c0.19,0.75 0.75,1.12 1.12,1.69 2.62,-2.81 2.81,-1.31 4.31,-0.75l0 -1.31c3.56,0.56 3.19,-0.75 4.87,0.37 -0.56,-1.31 -1.12,-2.25 -2.62,-2.44l-0.75 0c0,0 -0.19,0 -0.19,0 -0.37,-0.19 -0.19,0 -0.37,-0.19 0.56,-0.19 0.37,0 0.75,-0.37 -0.56,-0.37 -0.94,-0.75 -1.31,-1.12 -2.06,0.75 -4.87,2.62 -5.81,4.12z"/>
    <path class="fil1" d="M120.17 17.96c2.62,2.44 1.5,3 0.56,4.31l1.5 0c-0.75,3 0,1.69 0,3.56 0,0.56 -0.19,0.94 -0.37,1.31 1.87,-0.56 2.44,-1.5 2.44,-3.37l0.19 0c0.75,0.19 1.31,-1.12 1.31,-1.12 -0.19,-1.87 -3,-5.06 -4.12,-5.81 -0.56,0.37 -0.94,0.75 -1.5,1.12z"/>
    <path class="fil1" d="M48.4 46.82c1.87,0 3.37,0 3.37,2.62 0.75,-0.37 0.56,-0.56 1.12,-0.94 0.56,1.31 0.37,0.94 1.5,1.87 0.94,0.56 1.12,0.56 1.5,1.31l0.19 0.37c1.12,-2.81 -0.19,-3.37 -0.56,-3.75 -0.19,-0.56 0,0.19 0,-0.37 0,-0.19 0.19,0 0.19,-0.75 0,-0.37 0,-0.75 0,-1.12 -0.75,-0.19 -0.94,-0.37 -1.5,-0.56 -1.87,-0.56 -3.75,-0.56 -5.62,-0.56l-0.19 1.87z"/>
    <path class="fil1" d="M113.98 214.53c-0.19,0.56 0,0 -0.56,-0.19 -0.56,1.5 -2.06,0.37 0.75,4.5 0.56,0.94 1.69,2.06 2.44,2.62 0.56,-0.37 0.94,-0.56 1.5,-1.12 -0.56,-0.37 -1.31,-1.12 -1.5,-2.06 -0.37,-1.12 0.56,-1.5 0.94,-2.25l-1.5 0c0.19,-0.56 0.37,-0.94 0.37,-1.69 -0.37,-2.81 -0.75,-0.75 0,-3.19 -1.5,0.75 -2.44,0.94 -2.44,3.37z"/>
    <path class="fil1" d="M48.02 183.24c-0.19,-0.19 -0.19,0 0,-0.75 -2.25,0.19 -1.87,-0.37 -2.62,2.62 -0.37,1.31 -0.75,3.19 -0.37,4.68l1.87 0.19c0,-2.44 0.19,-3.37 2.62,-3.37 -0.37,-0.56 -0.56,-0.75 -1.12,-1.12 2.44,-1.31 1.69,-2.06 3.19,-3l0.37 -0.19c-0.56,-0.37 -1.5,-0.56 -2.44,-0.37 -0.75,0.19 -1.12,0.56 -1.5,1.31z"/>
    <path class="fil1" d="M183.13 190.55c-0.94,-0.19 -0.37,-0.19 -0.75,0 0.37,0.56 0.19,1.12 0.19,1.69 2.81,0.94 3.37,1.12 7.12,1.12l0.19 -1.87c-1.69,0 -3.37,0.37 -3.37,-2.62 -0.56,0.37 -0.75,0.56 -1.12,0.94 -0.37,-0.94 -0.56,-1.12 -1.5,-1.69 -0.75,-0.56 -1.31,-0.75 -1.5,-1.87 -0.56,0.37 -0.75,1.31 -0.56,2.44 0.19,0.75 0.94,1.31 1.31,1.87z"/>
    <path class="fil1" d="M115.29 36.89l-1.5 -3c-1.69,1.5 0.19,3.56 1.5,5.62 0.56,0.56 1.12,0.94 1.5,1.5l1.12 -0.37c-0.19,-0.56 -2.81,-2.25 -0.75,-6.75 0.37,-0.94 0.94,-1.69 1.31,-2.44l-0.56 -0.56c-1.69,1.12 -2.25,4.12 -2.62,6z"/>
    <path class="fil1" d="M58.52 63.87c-1.5,-0.19 -2.44,-0.94 -3.56,-1.12 0.19,0.75 0.19,1.31 0.75,1.69 0.37,0.19 1.69,0.37 2.06,0.56 1.5,0.37 2.81,0.56 4.5,0.56l0.56 -1.31c-1.31,-0.19 -2.44,0.56 -4.31,-2.06 -0.94,-1.12 -1.69,-2.81 -1.69,-4.68 -1.12,0.19 -1.12,0.19 -0.94,1.12 0.37,2.06 1.31,3.56 2.62,5.25z"/>
    <path class="fil1" d="M120.35 197.86c0.19,0.19 0,0 0.19,0.37l0.75 0.94c0.94,1.5 0.56,3.94 -0.19,5.43 -0.37,0.56 -1.12,1.87 -1.31,2.44 0.37,0.19 0.37,0.19 0.56,0.37 1.5,-0.75 2.06,-3.56 2.44,-5.25l0.37 -0.75c0.19,0.56 0.37,0.75 0.56,1.31 0.37,0.56 0.56,1.12 0.75,1.69 1.87,-1.31 -0.94,-4.68 -2.06,-6 -0.75,-1.12 -0.75,-1.12 -2.06,-0.56z"/>
    <path class="fil1" d="M175.45 174.06c1.87,0 2.81,0 4.31,2.06 0.75,0.94 1.69,3 1.69,4.68l1.12 -0.19c-0.19,-1.5 -0.37,-2.25 -0.94,-3.37 -0.56,-1.12 -1.12,-1.69 -1.69,-2.62 1.31,0 2.25,0.75 3.37,1.12 -0.37,-1.69 -0.37,-1.87 -3.56,-2.44 -3.75,-0.94 -3.56,-0.56 -4.31,0.75z"/>
    <path class="fil1" d="M30.97 120.65c0.94,0.56 1.5,1.12 2.62,1.5 1.5,0.56 2.25,0.56 3,0.75 0.37,0.19 0,0 0.37,0.19 -0.75,0.37 -2.25,1.31 -3,1.31l0 0.37c0.94,0.19 0.75,0.94 1.87,0.37 1.87,-0.94 3.94,-2.25 5.06,-3.75l-0.37 -1.12c-0.75,0.56 -0.75,0.94 -1.87,1.31 -0.94,0.56 -1.69,0.37 -2.81,0.19 -3.19,-0.75 -3.56,-1.69 -4.5,-2.06 -0.19,0.56 -0.19,0.37 -0.37,0.94z"/>
    <path class="fil1" d="M63.76 180.06c-0.19,0.94 -0.75,2.44 -1.12,3.19 1.87,0.19 1.69,-0.56 2.25,-2.62 0.56,-1.69 0.56,-2.25 0.56,-4.31 -0.37,-0.56 -0.75,-0.56 -1.12,-0.75 0,1.12 0.19,1.5 -0.37,2.25 -0.19,0.56 -0.75,1.31 -1.12,1.69 -2.25,1.87 -4.68,1.87 -4.87,2.06 -0.56,0.19 -0.37,-0.19 -0.37,0.37 -0.19,1.5 3.94,-0.37 4.5,-0.75 0.75,-0.37 1.12,-0.94 1.69,-1.12z"/>
    <path class="fil1" d="M197.37 116.91l0.37 1.12c0.75,-0.56 0.75,-0.94 1.87,-1.31 0.75,-0.37 1.69,-0.37 2.81,-0.19 2.81,0.56 3.56,1.87 4.5,2.06l0.37 -0.75c-0.37,-0.56 -1.69,-1.31 -2.62,-1.69 -1.12,-0.37 -2.06,-0.56 -3.56,-0.75 0.94,-0.56 2.25,-1.31 3.19,-1.5 -0.19,-0.56 -1.12,-0.94 -1.69,-0.75 -0.56,0.19 -1.5,0.75 -1.87,1.12 -1.31,0.75 -2.62,1.5 -3.37,2.62z"/>
    <path class="fil1" d="M172.82 62.19l1.12 0.56c0,-1.87 0.19,-3 2.06,-4.31 1.87,-1.12 2.25,-1.31 4.68,-1.69 0,-0.75 0,-0.94 -0.75,-0.94 -1.12,0 -3.37,1.12 -4.31,1.69 -0.37,0.37 -0.56,0.56 -1.12,0.94 0,-0.94 0.75,-2.81 1.12,-3.37 -1.69,0 -1.69,0.56 -2.25,2.62 -0.37,1.69 -0.56,2.44 -0.56,4.5z"/>
   </g>
   <path class="fil2" d="M118.14 139.24c0.47,-0.55 0.71,-1.19 0.71,-1.74 0,-0.79 -0.47,-1.5 -1.34,-1.9 -1.82,1.58 -5.53,3.95 -8.06,3.95 -2.13,0 -3.56,-1.26 -2.61,-5.85l9.01 -42.2 0.32 0c1.82,0 2.77,-1.58 2.77,-3.08 0,-0.79 -0.32,-1.58 -1.11,-2.05 -6.08,1.98 -15.8,-1.58 -26.16,-1.58 -9.32,0 -13.12,5.69 -13.12,10.67 0,3.95 2.37,7.51 6.4,7.51 1.11,0 2.21,-0.24 3.4,-0.79 -0.95,-1.11 -1.58,-2.84 -1.58,-4.58 0,-3.71 2.61,-7.74 9.8,-7.74l1.58 0c-11.54,38.56 -19.52,48.28 -25.76,50.65l0 -0.71c0,-1.82 0.32,-5.06 1.66,-8.14 -1.11,-0.87 -2.53,-1.34 -3.95,-1.34 -3.56,0 -6.72,1.34 -6.72,5.93 0,7.03 2.84,10.83 6.8,10.83 6.8,0 13.04,-5.93 20.07,-22.21l8.85 0 -2.69 12.8c-1.5,7.19 3.56,9.4 8.06,9.4 4.03,0 9.25,-3.32 13.67,-7.82l0 0zm-11.77 -48.68l-6.32 29.71 -7.9 0c3.08,-7.9 6.32,-17.78 9.88,-30.19 1.5,0.16 2.92,0.32 4.35,0.47zm52.16 56.5c7.51,0 12.33,-7.03 12.33,-9.64 0,-0.71 -0.32,-1.42 -1.19,-1.82 -1.5,2.13 -4.03,3.95 -6.16,3.95 -5.85,0 -8.22,-13.67 -9.4,-25.68 8.77,-7.03 14.7,-14.86 14.7,-22.28 0,-2.92 -2.84,-4.74 -5.45,-4.74 -0.95,0 -2.05,0.16 -2.92,0.63 -1.9,8.93 -5.22,21.26 -16.2,27.66l-1.9 0.63 5.14 -24.26 0.71 0c1.82,0 2.77,-1.58 2.77,-3.08 0,-0.79 -0.32,-1.58 -1.11,-2.05 -3.4,1.9 -10.12,-1.58 -16.67,-1.58 -9.32,0 -13.12,5.69 -13.12,10.67 0,3.95 2.37,7.51 6.4,7.51 1.11,0 2.21,-0.24 3.4,-0.79 -0.95,-1.11 -1.58,-2.84 -1.58,-4.58 0,-3.71 2.61,-7.74 9.8,-7.74l0.4 0 -12.72 56.19c0.87,0.63 2.37,1.03 4.19,1.03 2.92,0 6.01,-1.34 6.8,-5.06l4.66 -22.05 4.03 -0.55c0.95,12.41 4.03,27.66 13.12,27.66z"/>
  </g>
 </g>
</svg>
